#N struct 1099-struct float x0 float y0 float c float f;
#N struct 1100-struct float x0 float y0 float c float f;
#N struct 1101-struct float x0 float y0 float c float f;
#N canvas 725 139 745 543 10;
#N canvas 49 62 1710 996 gui 0;
#X obj 472 771 bng 16 250 50 0 empty empty empty 0 -8 0 10 #fcfcfc #000000 #000000;
#X obj 472 750 loadbang;
#X obj 998 389 tabplay~ \$0-chirp;
#X obj 639 109 tgl 15 0 \$0-measure-snd \$0-measure-rcv run\ measurements 18 8 0 10 #f73e3a #000000 #000000 0 1;
#X obj 987 299 f;
#X obj 1014 299 + 1;
#X msg 987 363 set \$1;
#X obj 918 248 t a a;
#X obj 929 631 *~ -1;
#X msg 1002 275 0;
#X obj 987 470 dac~ 1;
#X obj 88 747 array define \$0-m2 1024;
#X obj 88 768 array define \$0-m3 1024;
#X obj 88 789 array define \$0-m4 1024;
#X obj 1218 304 pack f f f f;
#N canvas 9 98 507 565 create_chirp 0;
#X obj 37 37 inlet;
#X obj 52 96 samplerate~;
#X obj 52 117 pow -1, f 9;
#X obj 52 164 * 1000;
#X obj 36 496 tabwrite~ \$0-chirp;
#X obj 35 65 t a a a a;
#X msg 126 94 const 0;
#X obj 126 115 s \$0-chirp;
#X obj 306 284 mtof~;
#X obj 306 305 osc~;
#X obj 305 326 *~;
#X msg 353 272 -0.25;
#X obj 306 220 vline~;
#X obj 401 245 clip~ -1 1;
#X obj 400 270 pow~ 3;
#X obj 402 220 *~ 1.3;
#X obj 306 263 +~ 50;
#X obj 306 243 *~ 70;
#X obj 54 216 vline~;
#X obj 115 30 bng 16 250 50 0 empty empty empty 0 -8 0 10 #fcfcfc #000000 #000000;
#X obj 162 288 cos~;
#X obj 162 309 +~ 1;
#X obj 162 330 /~ 2;
#X obj 54 368 cos~;
#X obj 54 348 +~ 0.25;
#X msg 52 191 -1 \, 1 \$1;
#X obj 54 242 /~ 2;
#X obj 54 389 *~;
#X obj 54 314 /~ 2;
#X obj 55 138 * 255;
#X obj 45 462 *~ -1;
#X obj 115 360 pow~ 12;
#N canvas 63 88 450 300 shape_pow 0;
#X obj 54 99 inlet~;
#X obj 54 167 /~;
#X obj 92 148 abs~;
#X obj 54 233 outlet~;
#X obj 54 191 *~;
#X obj 92 172 pow~ 0.12;
#X connect 0 0 1 0;
#X connect 0 0 2 0;
#X connect 1 0 4 0;
#X connect 2 0 1 1;
#X connect 2 0 5 0;
#X connect 4 0 3 0;
#X connect 5 0 4 1;
#X restore 55 280 pd shape_pow;
#X connect 0 0 5 0;
#X connect 1 0 2 0;
#X connect 2 0 29 0;
#X connect 3 0 25 0;
#X connect 5 0 4 0;
#X connect 5 1 1 0;
#X connect 5 3 6 0;
#X connect 6 0 7 0;
#X connect 8 0 9 0;
#X connect 9 0 10 0;
#X connect 11 0 9 1;
#X connect 12 0 15 0;
#X connect 12 0 17 0;
#X connect 13 0 14 0;
#X connect 14 0 10 1;
#X connect 15 0 13 0;
#X connect 16 0 8 0;
#X connect 17 0 16 0;
#X connect 18 0 26 0;
#X connect 19 0 5 0;
#X connect 20 0 21 0;
#X connect 21 0 22 0;
#X connect 22 0 31 0;
#X connect 23 0 27 0;
#X connect 24 0 23 0;
#X connect 25 0 18 0;
#X connect 26 0 20 0;
#X connect 26 0 32 0;
#X connect 27 0 30 0;
#X connect 28 0 24 0;
#X connect 29 0 3 0;
#X connect 30 0 4 0;
#X connect 31 0 27 1;
#X connect 32 0 28 0;
#X restore 472 792 pd create_chirp;
#X obj 473 875 s \$0-transient;
#X msg 473 854 color 900;
#X obj 473 833 loadbang;
#X obj 573 875 s \$0-detect;
#X msg 573 854 color 69;
#X obj 918 269 bng 16 250 50 0 empty empty empty 0 -8 0 10 #fcfcfc #000000 #000000;
#X obj 918 654 tabwrite~ \$0-m1 \$0-m2 \$0-m3 \$0-m4;
#X obj 1218 248 +;
#X obj 1241 259 +;
#X obj 1264 269 +;
#X obj 1287 280 +;
#X obj 290 814 array define \$0-x 1;
#X obj 290 835 array define \$0-y 1;
#X obj 290 856 array define \$0-z 1;
#X obj 490 62 t a a a;
#X floatatom 49 151 6 0 100000 1 dist\ spk1<->mic1\ (mm) - \$0-speaker1-distance 0;
#X floatatom 49 130 6 1 256 1 speaker\ count - \$0-speaker-count 0;
#X obj 1041 299 mod 1;
#X obj 1068 276 r \$0-speaker-count;
#X obj 290 772 r \$0-speaker-count;
#X obj 89 834 v a\$0;
#X obj 89 855 v b\$0;
#X obj 910 788 unpack f f f;
#X obj 910 809 array set \$0-x;
#X obj 930 829 array set \$0-y;
#X obj 950 849 array set \$0-z;
#X obj 951 762 t a a a;
#X obj 987 342 + 1;
#X obj 401 130 hsl 120 15 50 0 0 0 \$0-offset empty signal\ offset 124 7 0 10 #fcfcfc #000000 #000000 0 1;
#X floatatom 1350 196 30 0 0 0 - - - 0;
#X obj 1350 216 * -1;
#X obj 968 71 bng 16 250 50 0 empty empty empty 0 -8 0 10 #fcfcfc #000000 #000000;
#X obj 1386 217 r \$0-speaker1-distance;
#X floatatom 1350 258 5 0 0 0 - - - 0;
#X text 990 71 0;
#X obj 1302 232 f;
#X floatatom 251 130 6 -20 60 1 temperature - \$0-temperature 0;
#X obj 153 14 loadbang;
#X obj 1241 132 x/get_peak_abs \$0 2;
#N canvas 26 365 1015 658 peak 0;
#X obj 277 142 t f b;
#X obj 277 163 until;
#X obj 277 184 f;
#X obj 303 185 + 1;
#X msg 331 184 0, f 2;
#X obj 277 231 array get \$0-m1 0 1;
#X obj 277 326 t f f;
#X obj 279 353 -;
#X obj 279 374 t f f;
#X obj 282 402 -;
#X obj 282 465 max, f 7;
#X msg 406 121 normalize;
#X obj 406 142 s \$0-m1;
#X obj 282 589 f;
#X obj 282 567 sel 1;
#X obj 282 546 change;
#X obj 496 166 loadbang;
#X obj 496 213 samplerate~;
#X obj 496 234 pow -1;
#X obj 496 276 * 1000;
#X obj 35 301 *;
#X obj 496 190 bng 16 250 50 0 empty empty empty 0 -8 0 10 #fcfcfc #000000 #000000;
#X floatatom 413 239 5 0 0 0 - - - 0;
#X msg 277 121 1024;
#X obj 413 267 t b f b;
#X obj 417 512 tabwrite \$0-detail;
#X obj 413 383 until;
#X obj 413 404 f;
#X obj 440 404 + 1;
#X msg 451 296 0;
#X obj 413 425 t f f;
#X obj 413 446 +;
#X obj 417 491 tabread \$0-m1;
#X obj 258 51 t b b b;
#X msg 413 292 12;
#X obj 34 65 array max \$0-detail;
#X obj 34 131 array get \$0-detail 0 3;
#X text 490 29 // For x = [-1 \, 0 \, 1] \; let a = (y1 + y3 - 2*y2)/2 \; let b = (y3 - y1)/2 \; \; // Peak position relative to center point \; let xPeak = -b/(2*a) \; // Peak value \; let yPeak = a*xPeak*xPeak + b*xPeak + y2 \;;
#X obj 34 158 unpack f f f;
#X floatatom 35 235 5 0 0 0 - - - 0;
#X obj 35 257 +;
#X obj 34 88 t a a a;
#X floatatom 73 235 5 0 0 0 - - - 0;
#X obj 35 279 +;
#X obj 142 353 t b f b;
#X msg 183 376 const 0;
#X obj 183 397 s \$0-detect;
#X obj 142 431 tabwrite \$0-detect;
#X msg 142 374 1;
#X obj 340 536 tabwrite \$0-transient;
#X obj 277 210 t f f;
#X obj 282 444 > 1;
#X obj 282 423 * 4;
#X obj 35 589 outlet;
#X obj 258 12 inlet;
#X obj 282 506 t f f;
#X obj 496 255 * 344.8;
#X obj 633 234 * 0.6;
#X obj 633 255 + 331.5;
#X floatatom 633 276 5 0 0 0 - - - 0;
#X obj 34 110 - 1;
#X obj 34 186 expr -b\$0/(2*a\$0+0.00001) \; a\$0 = ($f1 + $f3 - 2*$f2) / 2 \; b\$0 = ($f3 - $f1)/2 \;;
#X obj 633 213 r \$0-temperature;
#X connect 0 0 1 0;
#X connect 0 1 4 0;
#X connect 1 0 2 0;
#X connect 2 0 3 0;
#X connect 2 0 50 0;
#X connect 3 0 2 1;
#X connect 4 0 2 1;
#X connect 4 0 9 1;
#X connect 4 0 7 1;
#X connect 4 0 10 1;
#X connect 5 0 6 0;
#X connect 6 0 7 1;
#X connect 6 1 7 0;
#X connect 7 0 8 0;
#X connect 8 0 9 1;
#X connect 8 1 9 0;
#X connect 9 0 52 0;
#X connect 10 0 55 0;
#X connect 11 0 12 0;
#X connect 13 0 22 0;
#X connect 14 0 13 0;
#X connect 15 0 14 0;
#X connect 16 0 21 0;
#X connect 17 0 18 0;
#X connect 18 0 56 0;
#X connect 19 0 20 1;
#X connect 20 0 53 0;
#X connect 21 0 17 0;
#X connect 22 0 24 0;
#X connect 22 0 40 1;
#X connect 23 0 0 0;
#X connect 24 0 34 0;
#X connect 24 1 31 1;
#X connect 24 2 29 0;
#X connect 26 0 27 0;
#X connect 27 0 28 0;
#X connect 27 0 30 0;
#X connect 28 0 27 1;
#X connect 29 0 27 1;
#X connect 30 0 31 0;
#X connect 30 1 25 1;
#X connect 31 0 32 0;
#X connect 32 0 25 0;
#X connect 33 0 35 0;
#X connect 33 1 23 0;
#X connect 33 2 11 0;
#X connect 34 0 26 0;
#X connect 35 1 41 0;
#X connect 36 0 38 0;
#X connect 38 0 61 0;
#X connect 38 1 61 1;
#X connect 38 2 61 2;
#X connect 39 0 40 0;
#X connect 40 0 43 0;
#X connect 41 0 60 0;
#X connect 41 1 42 0;
#X connect 42 0 43 1;
#X connect 43 0 20 0;
#X connect 43 0 44 0;
#X connect 44 0 48 0;
#X connect 44 1 47 1;
#X connect 44 2 45 0;
#X connect 45 0 46 0;
#X connect 48 0 47 0;
#X connect 50 0 5 0;
#X connect 50 1 13 1;
#X connect 50 1 49 1;
#X connect 51 0 10 0;
#X connect 52 0 51 0;
#X connect 52 0 49 0;
#X connect 54 0 33 0;
#X connect 55 0 15 0;
#X connect 55 1 10 1;
#X connect 56 0 19 0;
#X connect 57 0 58 0;
#X connect 58 0 59 0;
#X connect 59 0 56 1;
#X connect 60 0 36 0;
#X connect 61 0 39 0;
#X connect 62 0 57 0;
#X restore 1218 111 pd peak for mic 1;
#X obj 1264 153 x/get_peak_abs \$0 3;
#X obj 1287 174 x/get_peak_abs \$0 4;
#X obj 273 151 bng 15 250 50 0 \$0-calibrate empty calibrate 18 7 0 10 #7fc6ff #000000 #000000;
#X obj 1350 237 +;
#X obj 1218 180 t f b f;
#X obj 968 50 r \$0-calibrate;
#X msg 1019 112 1;
#X obj 1302 212 spigot;
#X msg 968 134 0;
#X obj 968 113 del 100;
#X msg 290 793 resize \$1;
#X obj 918 507 del 12;
#X text 1415 56 1840 mittelpunkt \;;
#X text 1415 76 1535 m1 \;;
#X text 1415 96 1997 m2 \;;
#X msg 162 48 22;
#X msg 85 48 1;
#X msg 121 48 1000;
#X obj 918 227 metro 27;
#X obj 998 440 *~ 0.001;
#X obj 987 320 t a a a a;
#X msg 271 746 bounds 0 -1000 10 1000;
#X text 741 441 side;
#X text 495 441 front;
#X text 267 441 top;
#X obj 891 185 sel 0;
#X obj 849 316 spigot;
#X msg 849 337 0;
#X msg 891 295 1;
#X obj 918 206 t a b;
#X obj 849 358 t b a a;
#X obj 829 272 sel 0;
#N canvas 440 873 532 299 getmax 0;
#X obj 30 38 inlet;
#X obj 30 123 * -1;
#X obj 30 144 max;
#X obj 30 81 t b b;
#X obj 180 123 * -1;
#X obj 180 144 max;
#X obj 180 81 t b b;
#X obj 30 102 array min \$0-x;
#X obj 63 123 array max \$0-x;
#X obj 180 102 array min \$0-y;
#X obj 213 123 array max \$0-y;
#X obj 30 60 t b b b;
#X obj 30 165 max;
#X obj 330 123 * -1;
#X obj 330 144 max;
#X obj 330 81 t b b;
#X obj 330 102 array min \$0-z;
#X obj 363 123 array max \$0-z;
#X obj 30 186 max;
#X obj 30 207 s \$0-max;
#X connect 0 0 11 0;
#X connect 1 0 2 0;
#X connect 2 0 12 0;
#X connect 3 0 7 0;
#X connect 3 1 8 0;
#X connect 4 0 5 0;
#X connect 5 0 12 1;
#X connect 6 0 9 0;
#X connect 6 1 10 0;
#X connect 7 0 1 0;
#X connect 8 0 2 1;
#X connect 9 0 4 0;
#X connect 10 0 5 1;
#X connect 11 0 3 0;
#X connect 11 1 6 0;
#X connect 11 2 15 0;
#X connect 12 0 18 0;
#X connect 13 0 14 0;
#X connect 14 0 18 1;
#X connect 15 0 16 0;
#X connect 15 1 17 0;
#X connect 16 0 13 0;
#X connect 17 0 14 1;
#X connect 18 0 19 0;
#X restore 842 80 pd getmax;
#X obj 822 294 t a a;
#X obj 815 59 t b b;
#X text 1297 304 cartesian;
#X obj 49 201 x/display x y \$0;
#X obj 289 201 x/display x z \$0;
#X obj 529 201 x/display y z \$0;
#X obj 1019 150 t a;
#X obj 891 165 r \$0-measure-snd;
#X obj 849 401 s \$0-measure-rcv;
#X msg 849 379 set 0;
#X listbox 1218 909 19 0 0 0 - - - 36;
#X text 1307 892 spherical;
#X obj 1218 888 x/crt2sph 180;
#X obj 1237 482 x/angle3d cyc;
#X obj 1337 482 x/angle3d cyc;
#X obj 1437 482 x/angle3d cyc;
#X obj 1537 482 x/angle3d cyc;
#X obj 1237 503 - 0.25;
#X obj 1237 524 * 4;
#X obj 1237 545 max;
#X obj 1337 503 - 0.25;
#X obj 1337 524 * 4;
#X obj 1337 545 max;
#X obj 1437 503 - 0.25;
#X obj 1437 524 * 4;
#X obj 1437 545 max;
#X obj 1537 503 - 0.25;
#X obj 1537 524 * 4;
#X obj 1537 545 max;
#X obj 1237 395 t a a a a;
#X obj 929 529 adc~ 1 2 3 4;
#X obj 929 560 hip~ 8000;
#X obj 992 560 hip~ 8000;
#X obj 1056 560 hip~ 8000;
#X obj 1120 560 hip~ 8000;
#X obj 929 596 snake~ in 4;
#X obj 1237 587 x/scale3d;
#X obj 1337 587 x/scale3d;
#X obj 1437 587 x/scale3d;
#X obj 1537 587 x/scale3d;
#X obj 1237 608 x/add3d;
#X obj 1337 608 x/add3d;
#X obj 1437 608 x/add3d;
#X obj 1537 608 x/add3d;
#X obj 1237 639 unpack f f f;
#X obj 1337 639 unpack f f f;
#X obj 1437 639 unpack f f f;
#X obj 1537 639 unpack f f f;
#X obj 1237 662 pack f f f f f f f f f f f f, f 62;
#X obj 1237 683 list prepend positions;
#X obj 1237 704 list trim;
#X text 1317 731 FIXME: connect \, add position management;
#X obj 1218 344 t l l b;
#X obj 1218 732 x/tetra2pos_abs;
#X msg 1264 459 0 0.57735 -0.204124;
#X msg 1364 436 -0.5 -0.288675 -0.204124;
#X msg 1464 413 0.5 -0.288675 -0.204124;
#X obj 1237 566 * 8;
#X obj 1337 566 * 8;
#X obj 1437 566 * 8;
#X obj 1537 566 * 8;
#X obj 1564 566 x/mul3d 577;
#X obj 1464 566 x/mul3d 577;
#X obj 1364 566 x/mul3d 577;
#X obj 1264 566 x/mul3d 577;
#X listbox 1297 395 27 0 0 0 - - - 0;
#X text 1378 681 compensate for sound behind mic direction;
#X obj 1237 375 x/tetra2pos_abs 577;
#X obj 401 151 hsl 120 15 0.0001 0.01 1 0 \$0-volume empty volume 124 7 0 10 #fcfcfc #000000 #000000 0 1;
#X msg 198 48 0.001;
#X msg 249 48 12;
#X obj 41 466 cnv 16 738 170 empty empty empty 20 12 0 10 #7c7c7c #404040 0;
#N canvas 677 42 1092 909 (subpatch) 0;
#X array \$0-chirp 256 float 0;
#X coords 0 1 255 -1 128 120 1 0 0;
#X restore 641 507 graph;
#N canvas 0 22 450 278 (subpatch) 0;
#X array \$0-detail 12 float 3;
#A 0 0.17949 -0.223118 -0.553431 -0.32922 0.410242 0.261366 -0.645932 -0.601677 -0.159907 -0.163315 -0.275637 -0.145189;
#X coords 0 1 12 -1 128 120 1 0 0;
#X restore 513 507 graph;
#N canvas 0 25 1920 1147 (subpatch) 0;
#X array \$0-m1 512 float 0;
#X array \$0-transient 512 float 0;
#X array \$0-detect 512 float 0;
#X coords 0 1 511 -1 464 120 1 0 0;
#X restore 49 507 graph;
#X obj 581 748 r pd;
#X obj 581 769 route dsp;
#X msg 1030 218 clear;
#X obj 1059 481 f;
#X obj 1218 90 t a a a a a a;
#X obj 639 151 bng 15 250 50 0 \$0-export empty export\ JSON 18 7 0 10 #94ec96 #000000 #000000;
#N canvas 295 320 798 770 save 0;
#X obj 30 34 r \$0-export;
#X obj 32 604 file;
#X obj 32 98 savepanel;
#X obj 96 404 list fromsymbol;
#X obj 125 319 list fromsymbol;
#N canvas 399 150 586 939 write_channels 0;
#X obj 45 43 inlet;
#X obj 45 109 text size \$0-channels;
#X obj 45 155 until;
#X obj 45 186 f;
#X obj 45 130 t a b;
#X msg 84 155 0;
#X obj 72 186 + 1;
#X obj 86 67 bng 16 250 50 0 empty empty empty 0 -8 0 10 #fcfcfc #000000 #000000;
#X obj 65 249 text get \$0-channels;
#X obj 66 273 list split 1;
#X obj 136 876 outlet;
#X obj 79 293 list;
#X obj 136 823 list fromsymbol;
#X obj 136 794 makefilename %f;
#X msg 129 384 32 32 32 32 32 32 32 32 34 65 122 105 109 117 116 104 34 58, f 29;
#X obj 66 316 t b b f b;
#X obj 133 340 f;
#X obj 162 339 + 1;
#X msg 145 320 0;
#X msg 155 420 32 32 32 32 32 32 32 32 34 69 108 101 118 97 116 105 111 110 34 58, f 33;
#X msg 185 457 32 32 32 32 32 32 32 32 34 82 97 100 105 117 115 34 58, f 28;
#X msg 294 495 32 32 32 32 32 32 123 10;
#X msg 84 500 44 10;
#X obj 64 649 makefilename %d;
#X obj 64 670 list fromsymbol;
#X msg 73 557 32 32 32 32 32 32 32 32 34 67 104 97 110 110 101 108 34 58;
#X msg 54 691 44 10;
#X msg 40 726 32 32 32 32 32 32 32 32 34 73 115 73 109 97 103 105 110 97 114 121 34 58 102 97 108 115 101 44 10 32 32 32 32 32 32 32 32 34 71 97 105 110 34 58 49 10 32 32 32 32 32 32 125 44 10;
#X obj 45 212 t a a a a a a a;
#X obj 65 625 + 1;
#X obj 133 361 sel 1 2 0;
#X connect 0 0 1 0;
#X connect 1 0 4 0;
#X connect 2 0 3 0;
#X connect 3 0 6 0;
#X connect 3 0 28 0;
#X connect 4 0 2 0;
#X connect 4 1 5 0;
#X connect 5 0 3 1;
#X connect 6 0 3 1;
#X connect 7 0 1 0;
#X connect 8 0 9 0;
#X connect 9 0 15 0;
#X connect 9 1 11 1;
#X connect 11 0 9 0;
#X connect 12 0 10 0;
#X connect 13 0 12 0;
#X connect 14 0 10 0;
#X connect 15 0 11 0;
#X connect 15 1 22 0;
#X connect 15 2 13 0;
#X connect 15 3 16 0;
#X connect 16 0 17 0;
#X connect 16 0 30 0;
#X connect 17 0 16 1;
#X connect 18 0 16 1;
#X connect 19 0 10 0;
#X connect 20 0 10 0;
#X connect 21 0 10 0;
#X connect 22 0 10 0;
#X connect 23 0 24 0;
#X connect 24 0 10 0;
#X connect 25 0 10 0;
#X connect 26 0 10 0;
#X connect 27 0 10 0;
#X connect 28 0 27 0;
#X connect 28 1 26 0;
#X connect 28 2 29 0;
#X connect 28 3 25 0;
#X connect 28 4 8 0;
#X connect 28 5 18 0;
#X connect 28 6 21 0;
#X connect 29 0 23 0;
#X connect 30 0 14 0;
#X connect 30 1 19 0;
#X connect 30 2 20 0;
#X restore 65 492 pd write_channels;
#X msg 141 258 123 10 32 32 34 78 97 109 101 34 58 34, f 22;
#X msg 111 346 34 44 10 32 32 34 68 101 115 99 114 105 112 116 105 111 110 34 58 34, f 35;
#X msg 80 429 34 44 10 32 32 34 76 111 117 100 115 112 101 97 107 101 114 76 97 121 111 117 116 34 58 123 10 32 32 32 32 34 76 111 117 100 115 112 101 97 107 101 114 115 34 58 91 10, f 42;
#X msg 47 519 32 32 32 32 93 10 32 32 125 10 125 10;
#X obj 32 195 t b b b b b b b b a;
#X msg 33 552 close;
#X msg 150 229 open \$1 c;
#X obj 125 299 symbol name;
#X obj 96 382 symbol description;
#X obj 150 33 r \$0-name;
#X obj 239 32 r \$0-description;
#X text 200 52 FIXME: use;
#X connect 0 0 2 0;
#X connect 2 0 10 0;
#X connect 3 0 1 0;
#X connect 4 0 1 0;
#X connect 5 0 1 0;
#X connect 6 0 1 0;
#X connect 7 0 1 0;
#X connect 8 0 1 0;
#X connect 9 0 1 0;
#X connect 10 0 11 0;
#X connect 10 1 9 0;
#X connect 10 2 5 0;
#X connect 10 3 8 0;
#X connect 10 4 14 0;
#X connect 10 5 7 0;
#X connect 10 6 13 0;
#X connect 10 7 6 0;
#X connect 10 8 12 0;
#X connect 11 0 1 0;
#X connect 12 0 1 0;
#X connect 13 0 4 0;
#X connect 14 0 3 0;
#X connect 15 0 13 1;
#X connect 16 0 14 1;
#X restore 698 745 pd save;
#X obj 1019 788 text set \$0-channels;
#X obj 1030 239 text define \$0-channels;
#X obj 754 472 tgl 15 0 \$0-debug empty dummy\ values -74 8 0 10 #bbbbbb #000000 #000000 0 1;
#N canvas 736 279 521 683 random_values 0;
#X obj 84 79 inlet;
#X obj 83 493 outlet;
#X obj 154 327 - 1000;
#X obj 194 347 - 1000;
#X obj 154 388 pack f f f;
#X obj 84 136 spigot 1;
#X obj 154 136 spigot;
#X obj 187 67 r \$0-debug;
#X obj 150 98 == 0;
#X obj 234 367 - 1000;
#X obj 268 67 r \$0-speaker-count;
#X obj 154 157 b;
#X obj 154 178 f;
#X obj 182 198 mod 1;
#X msg 236 284 seed \$1;
#X obj 154 217 t b b b a a a;
#X msg 296 284 seed \$1;
#X msg 356 284 seed \$1;
#X obj 234 346 random 2001;
#X obj 194 326 random 2001;
#X obj 154 306 random 2001;
#X obj 182 177 + 1;
#X obj 236 262 * 10000;
#X obj 296 263 * 20000;
#X obj 356 263 * 30000;
#X obj 217 240 +;
#X obj 255 240 +;
#X obj 292 240 +;
#X obj 268 103 b;
#X obj 268 138 random 1000;
#X connect 0 0 5 0;
#X connect 0 0 6 0;
#X connect 2 0 4 0;
#X connect 3 0 4 1;
#X connect 4 0 1 0;
#X connect 5 0 1 0;
#X connect 6 0 11 0;
#X connect 7 0 6 1;
#X connect 7 0 8 0;
#X connect 8 0 5 1;
#X connect 9 0 4 2;
#X connect 10 0 13 1;
#X connect 10 0 28 0;
#X connect 11 0 12 0;
#X connect 12 0 15 0;
#X connect 12 0 21 0;
#X connect 13 0 12 1;
#X connect 14 0 20 0;
#X connect 15 0 20 0;
#X connect 15 1 19 0;
#X connect 15 2 18 0;
#X connect 15 3 25 0;
#X connect 15 4 26 0;
#X connect 15 5 27 0;
#X connect 16 0 19 0;
#X connect 17 0 18 0;
#X connect 18 0 9 0;
#X connect 19 0 3 0;
#X connect 20 0 2 0;
#X connect 21 0 13 0;
#X connect 22 0 14 0;
#X connect 23 0 16 0;
#X connect 24 0 17 0;
#X connect 25 0 22 0;
#X connect 26 0 23 0;
#X connect 27 0 24 0;
#X connect 28 0 29 0;
#X connect 29 0 27 1;
#X connect 29 0 26 1;
#X connect 29 0 25 1;
#X restore 1218 753 pd random_values;
#X msg 1074 217 click;
#X obj 1075 196 r \$0-show-list;
#X obj 639 130 bng 15 250 50 0 \$0-show-list empty show\ list\ editor 18 7 0 10 #ffffff #000000 #000000;
#X obj 822 37 pipe 100;
#X msg 1564 390 0 0 0.612372;
#X obj 1561 343 r \$0-edge-length;
#X msg 1339 354 edge \$1;
#X floatatom 49 109 6 0 2000 1 tetrahedron\ edge\ (mm) - \$0-edge-length 0;
#X msg 49 48 577;
#X obj 401 109 hsl 120 15 22 1000 1 0 \$0-interval empty interval 124 7 0 10 #ffffff #000000 #000000 0 1;
#X msg 285 48 26;
#X obj 1039 415 r \$0-volume;
#X obj 964 495 r \$0-offset;
#X obj 959 188 r \$0-interval;
#X obj 968 92 t b b b b;
#X msg 1055 113 0;
#X obj 1218 325 spigot 1;
#X msg 935 134 1;
#X obj 1218 69 del 12;
#X obj 1218 809 x/rotate2d;
#X obj 1218 867 x/add3d;
#X obj 52 188 hsl 170 8 -180 180 0 0 \$0-rotate empty rotate 0 -7 0 10 #fcfcfc #000000 #000000 0 1;
#X obj 234 188 hsl 170 8 -1000 1000 0 0 \$0-x-offset empty x-offset 0 -7 0 10 #fcfcfc #000000 #000000 0 1;
#X obj 416 188 hsl 170 8 -1000 1000 0 0 \$0-y-offset empty y-offset 0 -7 0 10 #fcfcfc #000000 #000000 0 1;
#X obj 597 188 hsl 170 8 -1000 1000 0 0 \$0-z-offset empty z-offset 0 -7 0 10 #fcfcfc #000000 #000000 0 1;
#X obj 1315 830 r \$0-x-offset;
#X obj 1489 790 r \$0-z-offset;
#X obj 1402 790 r \$0-y-offset;
#X obj 1315 851 pack f f f;
#X obj 1218 788 unpack f f f;
#X obj 1218 830 pack f f f, f 12;
#X obj 1299 788 r \$0-rotate;
#X obj 1401 811 t b f;
#X obj 1489 811 t b f;
#X msg 319 48 0;
#X obj 757 175 bng 12 250 50 0 \$0-reset-offset empty reset\ offset -74 6 0 10 #dfdfdf #000000 #000000;
#X obj 326 14 r \$0-reset-offset;
#X connect 0 0 15 0;
#X connect 1 0 0 0;
#X connect 2 0 75 0;
#X connect 4 0 5 0;
#X connect 4 0 76 0;
#X connect 5 0 33 0;
#X connect 6 0 10 0;
#X connect 7 0 21 0;
#X connect 7 1 4 0;
#X connect 8 0 22 0;
#X connect 9 0 4 1;
#X connect 14 0 191 0;
#X connect 17 0 16 0;
#X connect 18 0 20 0;
#X connect 18 0 17 0;
#X connect 20 0 19 0;
#X connect 21 0 67 0;
#X connect 21 0 2 0;
#X connect 23 0 14 0;
#X connect 24 0 14 1;
#X connect 25 0 14 2;
#X connect 26 0 14 3;
#X connect 30 0 92 0;
#X connect 30 1 93 0;
#X connect 30 2 94 0;
#X connect 33 0 4 1;
#X connect 34 0 33 1;
#X connect 35 0 66 0;
#X connect 38 0 39 0;
#X connect 38 1 40 0;
#X connect 38 2 41 0;
#X connect 42 0 39 1;
#X connect 42 1 40 1;
#X connect 42 2 41 1;
#X connect 43 0 6 0;
#X connect 45 0 46 0;
#X connect 46 0 59 0;
#X connect 47 0 189 0;
#X connect 48 0 59 1;
#X connect 49 0 51 1;
#X connect 51 0 26 1;
#X connect 51 0 25 1;
#X connect 51 0 24 1;
#X connect 51 0 23 1;
#X connect 53 0 72 0;
#X connect 53 0 71 0;
#X connect 53 0 73 0;
#X connect 53 0 158 0;
#X connect 53 0 159 0;
#X connect 53 0 183 0;
#X connect 53 0 185 0;
#X connect 53 0 209 0;
#X connect 54 0 24 0;
#X connect 55 0 60 0;
#X connect 56 0 25 0;
#X connect 57 0 26 0;
#X connect 59 0 49 0;
#X connect 60 0 23 0;
#X connect 60 1 63 0;
#X connect 60 2 45 0;
#X connect 61 0 47 0;
#X connect 62 0 95 0;
#X connect 63 0 51 0;
#X connect 64 0 95 0;
#X connect 65 0 64 0;
#X connect 65 0 192 0;
#X connect 66 0 27 0;
#X connect 66 0 29 0;
#X connect 66 0 28 0;
#X connect 67 0 22 0;
#X connect 67 0 193 0;
#X connect 71 0 52 0;
#X connect 72 0 32 0;
#X connect 73 0 31 0;
#X connect 74 0 7 0;
#X connect 75 0 10 0;
#X connect 76 0 43 0;
#X connect 76 2 167 1;
#X connect 76 3 87 0;
#X connect 77 0 27 0;
#X connect 77 0 28 0;
#X connect 77 0 29 0;
#X connect 81 0 84 0;
#X connect 81 1 85 0;
#X connect 82 0 83 0;
#X connect 83 0 86 0;
#X connect 84 0 82 1;
#X connect 85 0 74 0;
#X connect 85 1 9 0;
#X connect 85 1 166 0;
#X connect 86 0 98 0;
#X connect 86 1 74 0;
#X connect 86 2 82 1;
#X connect 87 0 89 0;
#X connect 89 0 178 0;
#X connect 89 1 82 0;
#X connect 90 0 30 0;
#X connect 90 1 88 0;
#X connect 95 0 63 1;
#X connect 96 0 81 0;
#X connect 98 0 97 0;
#X connect 101 0 99 0;
#X connect 101 0 171 0;
#X connect 102 0 106 0;
#X connect 103 0 109 0;
#X connect 104 0 112 0;
#X connect 105 0 115 0;
#X connect 106 0 107 0;
#X connect 107 0 108 0;
#X connect 108 0 146 0;
#X connect 109 0 110 0;
#X connect 110 0 111 0;
#X connect 111 0 147 0;
#X connect 112 0 113 0;
#X connect 113 0 114 0;
#X connect 114 0 148 0;
#X connect 115 0 116 0;
#X connect 116 0 117 0;
#X connect 117 0 149 0;
#X connect 118 0 102 0;
#X connect 118 1 103 0;
#X connect 118 2 104 0;
#X connect 118 3 105 0;
#X connect 119 0 120 0;
#X connect 119 1 121 0;
#X connect 119 2 122 0;
#X connect 119 3 123 0;
#X connect 120 0 124 0;
#X connect 121 0 124 1;
#X connect 122 0 124 2;
#X connect 123 0 124 3;
#X connect 124 0 8 0;
#X connect 125 0 129 0;
#X connect 126 0 130 0;
#X connect 127 0 131 0;
#X connect 128 0 132 0;
#X connect 129 0 133 0;
#X connect 130 0 134 0;
#X connect 131 0 135 0;
#X connect 132 0 136 0;
#X connect 133 0 137 0;
#X connect 133 1 137 1;
#X connect 133 2 137 2;
#X connect 134 0 137 3;
#X connect 134 1 137 4;
#X connect 134 2 137 5;
#X connect 135 0 137 6;
#X connect 135 1 137 7;
#X connect 135 2 137 8;
#X connect 136 0 137 9;
#X connect 136 1 137 10;
#X connect 136 2 137 11;
#X connect 137 0 138 0;
#X connect 138 0 139 0;
#X connect 139 0 142 0;
#X connect 141 0 142 0;
#X connect 141 1 156 0;
#X connect 141 2 179 0;
#X connect 141 2 145 0;
#X connect 141 2 144 0;
#X connect 141 2 143 0;
#X connect 142 0 174 0;
#X connect 143 0 102 1;
#X connect 143 0 125 1;
#X connect 143 0 153 0;
#X connect 144 0 103 1;
#X connect 144 0 126 1;
#X connect 144 0 152 0;
#X connect 145 0 104 1;
#X connect 145 0 127 1;
#X connect 145 0 151 0;
#X connect 146 0 125 0;
#X connect 147 0 126 0;
#X connect 148 0 127 0;
#X connect 149 0 128 0;
#X connect 150 0 132 1;
#X connect 151 0 131 1;
#X connect 152 0 130 1;
#X connect 153 0 129 1;
#X connect 156 0 118 0;
#X connect 156 0 154 0;
#X connect 158 0 157 0;
#X connect 159 0 44 0;
#X connect 164 0 165 0;
#X connect 165 0 0 0;
#X connect 166 0 172 0;
#X connect 167 0 171 1;
#X connect 167 0 42 0;
#X connect 168 1 55 0;
#X connect 168 2 54 0;
#X connect 168 3 56 0;
#X connect 168 4 57 0;
#X connect 168 5 167 0;
#X connect 174 0 204 0;
#X connect 175 0 172 0;
#X connect 176 0 175 0;
#X connect 178 0 90 0;
#X connect 179 0 105 1;
#X connect 179 0 128 1;
#X connect 179 0 150 0;
#X connect 180 0 150 1;
#X connect 180 0 151 1;
#X connect 180 0 152 1;
#X connect 180 0 153 1;
#X connect 180 0 181 0;
#X connect 181 0 156 0;
#X connect 183 0 182 0;
#X connect 185 0 184 0;
#X connect 186 0 75 1;
#X connect 187 0 67 1;
#X connect 188 0 74 1;
#X connect 189 0 65 0;
#X connect 189 1 7 0;
#X connect 189 2 9 0;
#X connect 189 3 62 0;
#X connect 189 3 190 0;
#X connect 190 0 191 1;
#X connect 191 0 141 0;
#X connect 192 0 191 1;
#X connect 193 0 168 0;
#X connect 194 0 205 0;
#X connect 194 1 205 1;
#X connect 195 0 101 0;
#X connect 195 0 38 0;
#X connect 200 0 203 0;
#X connect 201 0 208 0;
#X connect 202 0 207 0;
#X connect 203 0 195 1;
#X connect 204 0 194 0;
#X connect 204 1 194 1;
#X connect 204 2 205 2;
#X connect 205 0 195 0;
#X connect 206 0 194 2;
#X connect 207 0 203 0;
#X connect 207 1 203 1;
#X connect 208 0 203 0;
#X connect 208 1 203 2;
#X connect 209 0 197 0;
#X connect 209 0 199 0;
#X connect 209 0 198 0;
#X connect 209 0 196 0;
#X connect 211 0 209 0;
#X coords 0 -1 1 1 740 537 2 40 100;
#X restore 2 3 pd gui;
