#N struct 1028-struct float x0 float y0 float c float f;
#N struct 1029-struct float x0 float y0 float c float f;
#N struct 1030-struct float x0 float y0 float c float f;
#N canvas 312 123 745 613 10;
#N canvas 100 61 1742 1031 gui 0;
#X obj 472 717 loadbang;
#X obj 966 249 f;
#X obj 993 249 + 1;
#X msg 966 313 set \$1;
#X obj 822 577 *~ -1;
#X msg 981 225 0;
#X obj 966 470 dac~ 1;
#X obj 88 717 array define \$0-m2 1024;
#X obj 88 738 array define \$0-m3 1024;
#X obj 88 759 array define \$0-m4 1024;
#X obj 1172 304 pack f f f f;
#X obj 473 835 s \$0-transient;
#X obj 473 793 loadbang;
#X obj 573 835 s \$0-detect;
#X obj 811 602 tabwrite~ \$0-m1 \$0-m2 \$0-m3 \$0-m4;
#X obj 1172 241 +;
#X obj 1195 252 +;
#X obj 1218 262 +;
#X obj 1241 273 +;
#X obj 290 784 array define \$0-x 1;
#X obj 290 805 array define \$0-y 1;
#X obj 290 826 array define \$0-z 1;
#X obj 1020 249 mod 1;
#X obj 1047 200 r \$0-speaker-count;
#X obj 290 738 r \$0-speaker-count;
#X obj 89 804 v a\$0;
#X obj 89 825 v b\$0;
#X obj 987 905 unpack f f f;
#X obj 987 926 array set \$0-x;
#X obj 1007 946 array set \$0-y;
#X obj 1027 966 array set \$0-z;
#X obj 1028 884 t a a a;
#X obj 966 292 + 1;
#X obj 1256 183 * -1;
#X obj 1289 183 r \$0-speaker1-distance;
#X obj 1195 111 x/get_peak_abs \$0 2;
#X obj 1218 132 x/get_peak_abs \$0 3;
#X obj 1241 153 x/get_peak_abs \$0 4;
#X obj 1256 204 +;
#X obj 947 41 r \$0-calibrate;
#X msg 998 82 1;
#X msg 947 104 0;
#X obj 947 83 del 100;
#X msg 290 759 resize \$1;
#X obj 977 450 *~ 0.001;
#X msg 271 717 bounds 0 -1000 10 1000;
#X obj 870 155 sel 0;
#X obj 828 286 spigot;
#X msg 828 307 0;
#X msg 870 265 1;
#X obj 897 176 t a b;
#X obj 828 328 t b a a;
#N canvas 440 873 532 299 getmax 0;
#X obj 30 38 inlet;
#X obj 30 123 * -1;
#X obj 30 144 max;
#X obj 30 81 t b b;
#X obj 180 123 * -1;
#X obj 180 144 max;
#X obj 180 81 t b b;
#X obj 30 102 array min \$0-x;
#X obj 63 123 array max \$0-x;
#X obj 180 102 array min \$0-y;
#X obj 213 123 array max \$0-y;
#X obj 30 60 t b b b;
#X obj 30 165 max;
#X obj 330 123 * -1;
#X obj 330 144 max;
#X obj 330 81 t b b;
#X obj 330 102 array min \$0-z;
#X obj 363 123 array max \$0-z;
#X obj 30 186 max;
#X obj 30 207 s \$0-max;
#X connect 0 0 11 0;
#X connect 1 0 2 0;
#X connect 2 0 12 0;
#X connect 3 0 7 0;
#X connect 3 1 8 0;
#X connect 4 0 5 0;
#X connect 5 0 12 1;
#X connect 6 0 9 0;
#X connect 6 1 10 0;
#X connect 7 0 1 0;
#X connect 8 0 2 1;
#X connect 9 0 4 0;
#X connect 10 0 5 1;
#X connect 11 0 3 0;
#X connect 11 1 6 0;
#X connect 11 2 15 0;
#X connect 12 0 18 0;
#X connect 13 0 14 0;
#X connect 14 0 18 1;
#X connect 15 0 16 0;
#X connect 15 1 17 0;
#X connect 16 0 13 0;
#X connect 17 0 14 1;
#X connect 18 0 19 0;
#X restore 828 110 pd getmax;
#X obj 801 264 t a a;
#X obj 801 89 t b b;
#X obj 998 120 t a;
#X obj 870 134 r \$0-measure-snd;
#X obj 828 371 s \$0-measure-rcv;
#X msg 828 349 set 0;
#X obj 1172 854 x/crt2sph 180;
#X obj 1148 470 x/angle3d cyc;
#X obj 1236 470 x/angle3d cyc;
#X obj 1324 470 x/angle3d cyc;
#X obj 1411 470 x/angle3d cyc;
#X obj 1191 395 t a a a a;
#X obj 822 507 adc~ 1 2 3 4;
#X obj 822 556 snake~ in 4;
#X obj 1172 347 t l l b;
#X msg 1223 447 0 0.57735 -0.204124;
#X msg 1311 424 -0.5 -0.288675 -0.204124;
#X msg 1399 401 0.5 -0.288675 -0.204124;
#X obj 531 717 r pd;
#X obj 531 738 route dsp;
#X obj 1028 863 f;
#N canvas 295 320 798 770 save 0;
#X obj 30 34 r \$0-export;
#X obj 32 604 file;
#X obj 32 98 savepanel;
#X obj 96 404 list fromsymbol;
#X obj 125 319 list fromsymbol;
#N canvas 495 170 586 939 write_channels 0;
#X obj 45 43 inlet;
#X obj 45 79 text size \$0-channels;
#X obj 45 125 until;
#X obj 45 156 f;
#X obj 45 100 t a b;
#X msg 84 125 0;
#X obj 72 156 + 1;
#X obj 103 331 text get \$0-channels;
#X obj 96 353 list split 1;
#X obj 136 886 outlet;
#X obj 109 373 list;
#X obj 136 833 list fromsymbol;
#X obj 136 804 makefilename %f;
#X msg 142 465 32 32 32 32 32 32 32 32 34 65 122 105 109 117 116 104 34 58, f 29;
#X obj 96 396 t b b f b;
#X obj 147 420 f;
#X obj 176 419 + 1;
#X msg 159 400 0;
#X msg 155 500 32 32 32 32 32 32 32 32 34 69 108 101 118 97 116 105 111 110 34 58, f 33;
#X msg 185 537 32 32 32 32 32 32 32 32 34 82 97 100 105 117 115 34 58, f 28;
#X msg 294 575 32 32 32 32 32 32 123 10;
#X msg 84 580 44 10;
#X obj 64 659 makefilename %d;
#X obj 64 680 list fromsymbol;
#X msg 73 607 32 32 32 32 32 32 32 32 34 67 104 97 110 110 101 108 34 58;
#X msg 54 701 44 10;
#X msg 40 736 32 32 32 32 32 32 32 32 34 73 115 73 109 97 103 105 110 97 114 121 34 58 102 97 108 115 101 44 10 32 32 32 32 32 32 32 32 34 71 97 105 110 34 58 49 10 32 32 32 32 32 32 125 44 10;
#X obj 45 302 t a a a a a a a;
#X obj 65 635 + 1;
#X obj 144 441 sel 1 2 0;
#X obj 45 184 t a a;
#X obj 47 274 f;
#X obj 45 206 text size \$0-channels;
#X obj 46 240 sel 3;
#X connect 0 0 1 0;
#X connect 1 0 4 0;
#X connect 2 0 3 0;
#X connect 3 0 6 0;
#X connect 3 0 30 0;
#X connect 4 0 2 0;
#X connect 4 1 5 0;
#X connect 5 0 3 1;
#X connect 6 0 3 1;
#X connect 7 0 8 0;
#X connect 8 0 14 0;
#X connect 8 1 10 1;
#X connect 10 0 8 0;
#X connect 11 0 9 0;
#X connect 12 0 11 0;
#X connect 13 0 9 0;
#X connect 14 0 10 0;
#X connect 14 1 21 0;
#X connect 14 2 12 0;
#X connect 14 3 15 0;
#X connect 15 0 16 0;
#X connect 15 0 29 0;
#X connect 16 0 15 1;
#X connect 17 0 15 1;
#X connect 18 0 9 0;
#X connect 19 0 9 0;
#X connect 20 0 9 0;
#X connect 21 0 9 0;
#X connect 22 0 23 0;
#X connect 23 0 9 0;
#X connect 24 0 9 0;
#X connect 25 0 9 0;
#X connect 26 0 9 0;
#X connect 27 0 26 0;
#X connect 27 1 25 0;
#X connect 27 2 28 0;
#X connect 27 3 24 0;
#X connect 27 4 7 0;
#X connect 27 5 17 0;
#X connect 27 6 20 0;
#X connect 28 0 22 0;
#X connect 29 0 13 0;
#X connect 29 1 18 0;
#X connect 29 2 19 0;
#X connect 30 0 32 0;
#X connect 30 1 31 1;
#X connect 31 0 27 0;
#X connect 32 0 33 0;
#X connect 33 0 31 0;
#X restore 65 492 pd write_channels;
#X msg 141 258 123 10 32 32 34 78 97 109 101 34 58 34, f 22;
#X msg 111 346 34 44 10 32 32 34 68 101 115 99 114 105 112 116 105 111 110 34 58 34, f 35;
#X msg 80 429 34 44 10 32 32 34 76 111 117 100 115 112 101 97 107 101 114 76 97 121 111 117 116 34 58 123 10 32 32 32 32 34 76 111 117 100 115 112 101 97 107 101 114 115 34 58 91 10, f 42;
#X msg 47 519 32 32 32 32 93 10 32 32 125 10 125 10;
#X obj 32 195 t b b b b b b b b a;
#X msg 33 552 close;
#X msg 150 229 open \$1 c;
#X obj 125 299 symbol name;
#X obj 96 382 symbol description;
#X obj 150 33 r \$0-name;
#X obj 239 32 r \$0-description;
#X text 200 52 FIXME: use;
#X connect 0 0 2 0;
#X connect 2 0 10 0;
#X connect 3 0 1 0;
#X connect 4 0 1 0;
#X connect 5 0 1 0;
#X connect 6 0 1 0;
#X connect 7 0 1 0;
#X connect 8 0 1 0;
#X connect 9 0 1 0;
#X connect 10 0 11 0;
#X connect 10 1 9 0;
#X connect 10 2 5 0;
#X connect 10 3 8 0;
#X connect 10 4 14 0;
#X connect 10 5 7 0;
#X connect 10 6 13 0;
#X connect 10 7 6 0;
#X connect 10 8 12 0;
#X connect 11 0 1 0;
#X connect 12 0 1 0;
#X connect 13 0 4 0;
#X connect 14 0 3 0;
#X connect 15 0 13 1;
#X connect 16 0 14 1;
#X restore 628 738 pd save;
#X obj 989 996 text set \$0-channels;
#X obj 852 775 text define \$0-channels;
#N canvas 736 279 521 683 random_values 0;
#X obj 84 79 inlet;
#X obj 83 493 outlet;
#X obj 154 327 - 1000;
#X obj 194 347 - 1000;
#X obj 154 388 pack f f f;
#X obj 84 136 spigot 1;
#X obj 154 136 spigot;
#X obj 187 67 r \$0-debug;
#X obj 150 98 == 0;
#X obj 234 367 - 1000;
#X obj 268 67 r \$0-speaker-count;
#X obj 154 157 b;
#X obj 154 178 f;
#X obj 182 198 mod 1;
#X msg 236 284 seed \$1;
#X obj 154 217 t b b b a a a;
#X msg 296 284 seed \$1;
#X msg 356 284 seed \$1;
#X obj 234 346 random 2001;
#X obj 194 326 random 2001;
#X obj 154 306 random 2001;
#X obj 182 177 + 1;
#X obj 236 262 * 10000;
#X obj 296 263 * 20000;
#X obj 356 263 * 30000;
#X obj 236 240 +;
#X obj 296 240 +;
#X obj 358 240 +;
#X obj 268 103 b;
#X obj 268 138 random 1000;
#X connect 0 0 5 0;
#X connect 0 0 6 0;
#X connect 2 0 4 0;
#X connect 3 0 4 1;
#X connect 4 0 1 0;
#X connect 5 0 1 0;
#X connect 6 0 11 0;
#X connect 7 0 6 1;
#X connect 7 0 8 0;
#X connect 8 0 5 1;
#X connect 9 0 4 2;
#X connect 10 0 13 1;
#X connect 10 0 28 0;
#X connect 11 0 12 0;
#X connect 12 0 15 0;
#X connect 12 0 21 0;
#X connect 13 0 12 1;
#X connect 14 0 20 0;
#X connect 15 0 20 0;
#X connect 15 1 19 0;
#X connect 15 2 18 0;
#X connect 15 3 25 0;
#X connect 15 4 26 0;
#X connect 15 5 27 0;
#X connect 16 0 19 0;
#X connect 17 0 18 0;
#X connect 18 0 9 0;
#X connect 19 0 3 0;
#X connect 20 0 2 0;
#X connect 21 0 13 0;
#X connect 22 0 14 0;
#X connect 23 0 16 0;
#X connect 24 0 17 0;
#X connect 25 0 22 0;
#X connect 26 0 23 0;
#X connect 27 0 24 0;
#X connect 28 0 29 0;
#X connect 29 0 27 1;
#X connect 29 0 26 1;
#X connect 29 0 25 1;
#X restore 1172 739 pd random_values;
#X msg 896 753 click;
#X obj 897 732 r \$0-show-list;
#X msg 1486 380 0 0 0.612372;
#X obj 1306 338 r \$0-edge-length;
#X msg 1306 359 edge \$1;
#X obj 1022 428 r \$0-volume;
#X obj 989 156 r \$0-interval;
#X obj 947 62 t b b b b;
#X msg 1034 83 0;
#X obj 1172 325 spigot 1;
#X msg 914 104 1;
#X obj 1172 781 x/rotate2d;
#X obj 1172 833 x/add3d;
#X obj 1036 718 r \$0-x-offset;
#X obj 1081 760 r \$0-z-offset;
#X obj 1043 739 r \$0-y-offset;
#X obj 1036 805 pack f f f;
#X obj 1172 760 unpack f f f;
#X obj 1172 802 pack f f f, f 12;
#X obj 1253 760 r \$0-rotate;
#X obj 1042 760 t b f;
#X obj 1081 781 t b f;
#N canvas 1043 278 663 383 init_parameters 0;
#X obj 134 52 loadbang;
#X msg 143 86 22;
#X msg 66 86 1;
#X msg 30 86 577;
#X msg 483 83 0;
#X obj 482 51 r \$0-reset-offset;
#X obj 30 259 s \$0-edge-length-rcv;
#X obj 481 207 s \$0-y-offset-rcv;
#X obj 511 167 s \$0-rotate-rcv;
#X obj 501 187 s \$0-z-offset-rcv;
#X obj 461 227 s \$0-x-offset-rcv;
#X obj 67 238 s \$0-speaker-count-rcv;
#X obj 102 215 s \$0-speaker1-distance-rcv;
#X obj 143 193 s \$0-temperature-rcv;
#X obj 179 171 s \$0-volume-rcv;
#X obj 260 129 s \$0-offset-rcv;
#X obj 296 107 s \$0-interval-rcv;
#X msg 296 86 16;
#X msg 102 86 2000;
#X msg 219 86 0.01;
#X obj 219 151 s \$0-threshold-rcv;
#X msg 179 86 0.002;
#X msg 260 86 8;
#X connect 0 0 2 0;
#X connect 0 0 1 0;
#X connect 0 0 18 0;
#X connect 0 0 21 0;
#X connect 0 0 22 0;
#X connect 0 0 3 0;
#X connect 0 0 17 0;
#X connect 0 0 4 0;
#X connect 1 0 13 0;
#X connect 2 0 11 0;
#X connect 3 0 6 0;
#X connect 4 0 10 0;
#X connect 4 0 7 0;
#X connect 4 0 9 0;
#X connect 4 0 8 0;
#X connect 5 0 4 0;
#X connect 17 0 16 0;
#X connect 18 0 12 0;
#X connect 19 0 20 0;
#X connect 21 0 14 0;
#X connect 22 0 15 0;
#X restore 628 717 pd init_parameters;
#X text 1604 989 Ben Wesch \, 2025;
#X text 1251 304 distances;
#X obj 893 400 r \$0-offset;
#X obj 1172 572 unpack f f f f;
#X obj 1133 593 -;
#X obj 1199 593 -;
#X obj 1226 593 -;
#X obj 1252 593 -;
#X obj 1172 614 pack f f f f;
#X text 1538 437 0: 0 \; 22.5: 0.5 \; 45: 1 \; 67.5: 1.5 \; 90: 2 \; 112.5: 3 \; 135: 5 \; 167.5: 8.5 \; 180: 9.5 \;;
#X obj 1172 718 x/tetra2pos_abs 577;
#X obj 1191 375 x/tetra2pos_abs 577;
#X obj 1237 635 +;
#X obj 1207 651 +;
#X obj 1179 667 +;
#X obj 1355 703 / 4;
#X obj 1172 875 unpack f f f;
#X obj 1133 614 t a a;
#X obj 1172 980 pack f f f;
#X obj 808 208 f;
#X obj 1148 491 expr pow($f1*360 \, 3)*1.646e-6-pow($f1*360 \, 2)*1.0347e-4+0.0193*$f1*360;
#X obj 1236 523 expr pow($f1*360 \, 3)*1.646e-6-pow($f1*360 \, 2)*1.0347e-4+0.0193*$f1*360;
#X obj 1324 555 expr pow($f1*360 \, 3)*1.646e-6-pow($f1*360 \, 2)*1.0347e-4+0.0193*$f1*360;
#X obj 1411 587 expr pow($f1*360 \, 3)*1.646e-6-pow($f1*360 \, 2)*1.0347e-4+0.0193*$f1*360;
#X obj 1157 48 del 1 512 samp;
#X obj 897 197 metro 1 64 samp;
#X obj 989 177 i;
#X obj 1328 901 / 10;
#X obj 1328 943 i;
#X obj 1328 922 + 0.5;
#X obj 1328 964 / 100;
#X obj 1206 896 * 10;
#X obj 1245 896 * 10;
#X obj 1206 917 + 0.5;
#X obj 1245 917 + 0.5;
#X obj 1206 938 i;
#X obj 1245 938 i;
#X obj 1206 959 / 10;
#X obj 1245 959 / 10;
#X obj 1059 223 - 1;
#X obj 945 350 tabplay~ \$0-signal;
#N canvas 910 167 518 556 create_signal 0;
#X obj 35 57 inlet;
#X obj 69 136 samplerate~;
#X obj 69 157 pow -1, f 9;
#X msg 143 136 const 0;
#X obj 186 319 mtof~;
#X obj 186 340 osc~;
#X obj 186 361 *~;
#X msg 231 316 -0.25;
#X obj 186 254 vline~;
#X obj 278 317 clip~ -1 1;
#X obj 278 338 pow~ 3;
#X obj 278 296 *~ 1.3;
#X obj 357 252 vline~;
#X obj 75 56 bng 16 250 50 0 empty empty empty 0 -8 0 10 #fcfcfc #000000 #000000;
#X obj 438 289 cos~;
#X obj 438 310 +~ 1;
#X obj 438 331 /~ 2;
#X obj 357 399 cos~;
#X obj 357 379 +~ 0.25;
#X msg 357 231 -1 \, 1 \$1;
#X obj 357 273 /~ 2;
#X obj 357 420 *~;
#X obj 357 345 /~ 2;
#X obj 438 379 pow~ 12;
#N canvas 63 88 450 300 shape_pow 0;
#X obj 54 99 inlet~;
#X obj 54 167 /~;
#X obj 92 148 abs~;
#X obj 54 233 outlet~;
#X obj 54 191 *~;
#X obj 92 172 pow~ 0.12;
#X connect 0 0 1 0;
#X connect 0 0 2 0;
#X connect 1 0 4 0;
#X connect 2 0 1 1;
#X connect 2 0 5 0;
#X connect 4 0 3 0;
#X connect 5 0 4 1;
#X restore 357 294 pd shape_pow;
#X msg 186 232 1 \, 0 \$1;
#X obj 186 298 +~ 54;
#X obj 186 277 *~ 58;
#X obj 52 435 tabwrite~ \$0-signal;
#X obj 143 157 s \$0-signal;
#X obj 69 293 vline~;
#X obj 69 355 cos~;
#X obj 122 334 cos~;
#X obj 69 410 *~;
#X obj 69 220 pack;
#X obj 35 508 s \$0-signal;
#X msg 35 487 normalize;
#X obj 35 466 del 1 64 samp;
#X obj 69 178 * 1000;
#X obj 122 355 -~ 1;
#X obj 122 376 *~ -0.5;
#X msg 69 261 0 \, 1 \$1;
#X obj 69 334 +~ 0.25;
#X obj 35 85 t b b b b;
#X obj 115 32 loadbang;
#X obj 115 53 samplerate~;
#X obj 115 74 pow -1;
#X obj 115 95 * 1000;
#X obj 69 111 del;
#X obj 69 199 * 15;
#X connect 0 0 43 0;
#X connect 1 0 2 0;
#X connect 2 0 38 0;
#X connect 3 0 29 0;
#X connect 4 0 5 0;
#X connect 5 0 6 0;
#X connect 7 0 5 1;
#X connect 8 0 11 0;
#X connect 8 0 27 0;
#X connect 9 0 10 0;
#X connect 10 0 6 1;
#X connect 11 0 9 0;
#X connect 12 0 20 0;
#X connect 13 0 43 0;
#X connect 14 0 15 0;
#X connect 15 0 16 0;
#X connect 16 0 23 0;
#X connect 17 0 21 0;
#X connect 18 0 17 0;
#X connect 19 0 12 0;
#X connect 20 0 14 0;
#X connect 20 0 24 0;
#X connect 22 0 18 0;
#X connect 23 0 21 1;
#X connect 24 0 22 0;
#X connect 25 0 8 0;
#X connect 26 0 4 0;
#X connect 27 0 26 0;
#X connect 30 0 32 0;
#X connect 30 0 42 0;
#X connect 31 0 33 0;
#X connect 32 0 39 0;
#X connect 33 0 28 0;
#X connect 34 0 41 0;
#X connect 36 0 35 0;
#X connect 37 0 36 0;
#X connect 38 0 49 0;
#X connect 39 0 40 0;
#X connect 40 0 33 1;
#X connect 41 0 30 0;
#X connect 42 0 31 0;
#X connect 43 0 37 0;
#X connect 43 1 28 0;
#X connect 43 2 48 0;
#X connect 43 3 3 0;
#X connect 44 0 45 0;
#X connect 45 0 46 0;
#X connect 46 0 47 0;
#X connect 47 0 48 1;
#X connect 48 0 1 0;
#X connect 49 0 34 0;
#X restore 472 759 pd create_signal;
#N canvas 797 313 1015 658 peak_for_mic_1 0;
#X obj 277 142 t f b;
#X obj 277 163 until;
#X obj 277 184 f;
#X obj 303 185 + 1;
#X msg 331 184 0, f 2;
#X obj 277 231 array get \$0-m1 0 1;
#X obj 277 326 t f f;
#X obj 279 353 -;
#X obj 279 374 t f f;
#X obj 282 402 -;
#X obj 282 465 max, f 7;
#X msg 326 121 normalize;
#X obj 326 142 s \$0-m1;
#X obj 282 589 f;
#X obj 282 553 sel 1;
#X obj 281 525 change;
#X obj 496 166 loadbang;
#X obj 496 213 samplerate~;
#X obj 496 234 pow -1;
#X obj 496 276 * 1000;
#X obj 35 301 *;
#X obj 496 190 bng 16 250 50 0 empty empty empty 0 -8 0 10 #fcfcfc #000000 #000000;
#X floatatom 413 239 5 0 0 0 - - - 0;
#X msg 277 121 1024;
#X obj 413 267 t b f b;
#X obj 417 512 tabwrite \$0-detail;
#X obj 413 383 until;
#X obj 413 404 f;
#X obj 440 404 + 1;
#X msg 451 296 0;
#X obj 413 425 t f f;
#X obj 413 446 +;
#X obj 417 491 tabread \$0-m1;
#X msg 413 292 12;
#X obj 34 65 array max \$0-detail;
#X obj 34 131 array get \$0-detail 0 3;
#X text 621 30 // For x = [-1 \, 0 \, 1] \; let a = (y1 + y3 - 2*y2)/2 \; let b = (y3 - y1)/2 \; \; // Peak position relative to center point \; let xPeak = -b/(2*a) \; // Peak value \; let yPeak = a*xPeak*xPeak + b*xPeak + y2 \;;
#X obj 34 158 unpack f f f;
#X floatatom 35 235 5 0 0 0 - - - 0;
#X obj 35 257 +;
#X obj 34 88 t a a a;
#X floatatom 73 235 5 0 0 0 - - - 0;
#X obj 35 279 +;
#X obj 142 353 t b f b;
#X msg 183 376 const 0;
#X obj 183 397 s \$0-detect;
#X obj 142 431 tabwrite \$0-detect;
#X msg 142 374 1;
#X obj 420 551 tabwrite \$0-transient;
#X obj 277 210 t f f;
#X obj 35 589 outlet;
#X obj 258 12 inlet;
#X obj 282 506 t f f;
#X obj 496 255 * 344.8;
#X obj 633 234 * 0.6;
#X obj 633 255 + 331.5;
#X floatatom 633 276 5 0 0 0 - - - 0;
#X obj 34 110 - 1;
#X obj 34 186 expr -b\$0/(2*a\$0+0.00001) \; a\$0 = ($f1 + $f3 - 2*$f2) / 2 \; b\$0 = ($f3 - $f1)/2 \;;
#X obj 633 213 r \$0-temperature;
#X obj 282 444 > 0.25;
#X obj 349 512 clip -1 1;
#X obj 258 51 t b b b b;
#X obj 443 67 array max \$0-m1;
#X obj 443 88 >;
#X obj 471 44 r \$0-threshold;
#X obj 35 445 spigot;
#X connect 0 0 1 0;
#X connect 0 1 4 0;
#X connect 1 0 2 0;
#X connect 2 0 3 0;
#X connect 2 0 49 0;
#X connect 3 0 2 1;
#X connect 4 0 2 1;
#X connect 4 0 9 1;
#X connect 4 0 7 1;
#X connect 4 0 10 1;
#X connect 5 0 6 0;
#X connect 6 0 7 1;
#X connect 6 1 7 0;
#X connect 7 0 8 0;
#X connect 8 0 9 1;
#X connect 8 1 9 0;
#X connect 9 0 60 0;
#X connect 9 0 61 0;
#X connect 10 0 52 0;
#X connect 11 0 12 0;
#X connect 13 0 22 0;
#X connect 14 0 13 0;
#X connect 15 0 14 0;
#X connect 16 0 21 0;
#X connect 17 0 18 0;
#X connect 18 0 53 0;
#X connect 19 0 20 1;
#X connect 20 0 66 0;
#X connect 21 0 17 0;
#X connect 22 0 24 0;
#X connect 22 0 39 1;
#X connect 23 0 0 0;
#X connect 24 0 33 0;
#X connect 24 1 31 1;
#X connect 24 2 29 0;
#X connect 26 0 27 0;
#X connect 27 0 28 0;
#X connect 27 0 30 0;
#X connect 28 0 27 1;
#X connect 29 0 27 1;
#X connect 30 0 31 0;
#X connect 30 1 25 1;
#X connect 31 0 32 0;
#X connect 32 0 25 0;
#X connect 33 0 26 0;
#X connect 34 1 40 0;
#X connect 35 0 37 0;
#X connect 37 0 58 0;
#X connect 37 1 58 1;
#X connect 37 2 58 2;
#X connect 38 0 39 0;
#X connect 39 0 42 0;
#X connect 40 0 57 0;
#X connect 40 1 41 0;
#X connect 41 0 42 1;
#X connect 42 0 20 0;
#X connect 42 0 43 0;
#X connect 43 0 47 0;
#X connect 43 1 46 1;
#X connect 43 2 44 0;
#X connect 44 0 45 0;
#X connect 47 0 46 0;
#X connect 49 0 5 0;
#X connect 49 1 13 1;
#X connect 49 1 48 1;
#X connect 51 0 62 0;
#X connect 52 0 15 0;
#X connect 52 1 10 1;
#X connect 53 0 19 0;
#X connect 54 0 55 0;
#X connect 55 0 56 0;
#X connect 56 0 53 1;
#X connect 57 0 35 0;
#X connect 58 0 38 0;
#X connect 59 0 54 0;
#X connect 60 0 10 0;
#X connect 61 0 48 0;
#X connect 62 0 34 0;
#X connect 62 1 23 0;
#X connect 62 2 11 0;
#X connect 62 3 63 0;
#X connect 63 0 64 0;
#X connect 64 0 66 1;
#X connect 65 0 64 1;
#X connect 66 0 50 0;
#X restore 1172 90 pd peak_for_mic_1;
#X obj 814 641 r \$0-speaker-count;
#X obj 813 732 until;
#X obj 813 712 t f b;
#X msg 852 733 clear;
#X obj 813 804 text insert \$0-channels;
#X obj 1157 69 t a a a a a a;
#X obj 813 687 f;
#X obj 897 218 t a a a a;
#X obj 857 438 abs;
#X obj 857 419 min;
#X obj 894 443 max;
#X obj 893 422 i;
#N canvas 1325 511 200 150 delay 0;
#X obj 20 20 inlet~;
#X obj 30 60 delwrite~ \$0-del 50;
#X obj 28 106 outlet;
#X connect 0 0 1 0;
#X restore 978 386 pd delay;
#X obj 977 407 delread4~ \$0-del;
#X obj 808 229 sel 0;
#X obj 811 478 del 0 64 samp;
#X obj 966 270 t a a a a a;
#X obj 825 663 sel 0;
#X msg 573 814 color 92;
#X obj 40 40 cnv 16 740 607 empty empty empty 20 12 0 10 #f2f2f2 #404040 0;
#X obj 532 97 tgl 15 0 \$0-measure-snd \$0-measure-rcv Run\ measurements 18 8 0 10 #6aee00 #000000 #000000 0 1;
#X obj 93 97 hsl 100 15 -20 20 0 0 \$0-offset \$0-offset-rcv offset\ (ms) 104 7 0 10 #fcfcfc #000000 #000000 0 1;
#X obj 532 77 bng 15 250 50 0 \$0-calibrate _r Calibrate 18 7 0 10 #deffdf #000000 #000000;
#X obj 48 213 x/display x y \$0;
#X obj 532 213 x/display x z \$0;
#X obj 290 213 x/display y z \$0;
#X obj 93 117 hsl 100 15 0.001 1 1 0 \$0-volume \$0-volume-rcv volume 104 7 0 10 #fcfcfc #000000 #000000 0 1;
#X obj 532 117 bng 15 250 50 0 \$0-export _r Export\ JSON\ file 18 7 0 10 #282828 #ffffff #000000;
#X obj 532 137 bng 15 250 50 0 \$0-show-list _r Show\ list\ editor 18 7 0 10 #ffffff #000000 #7c7c7c;
#X obj 93 77 hsl 100 15 8 256 1 0 \$0-interval \$0-interval-rcv interval\ (ms) 104 7 0 10 #ffffff #000000 #000000 0 1;
#X obj 51 181 hsl 235 8 -180 180 0 0 \$0-rotate \$0-rotate-rcv z-rotation 0 -7 0 10 #282828 #ffffff #000000 0 1;
#X obj 51 205 hsl 235 8 -1000 1000 0 0 \$0-x-offset \$0-x-offset-rcv x-offset 0 -7 0 10 #282828 #ffffff #000000 0 1;
#X obj 293 205 hsl 235 8 -1000 1000 0 0 \$0-y-offset \$0-y-offset-rcv y-offset 0 -7 0 10 #282828 #ffffff #000000 0 1;
#X obj 535 205 hsl 235 8 -1000 1000 0 0 \$0-z-offset \$0-z-offset-rcv z-offset 0 -7 0 10 #282828 #ffffff #000000 0 1;
#X obj 757 177 bng 15 250 50 0 \$0-reset-offset _r Reset\ offsets -80 7 0 10 #ffffff #000000 #7c7c7c;
#X obj 93 137 hsl 100 15 0.0001 0.1 1 0 \$0-threshold \$0-threshold-rcv threshold 104 7 0 10 #fcfcfc #000000 #000000 0 1;
#X floatatom 48 97 6 0 0 0 - \$0-offset _ 0;
#X floatatom 48 77 6 0 0 0 - \$0-interval _ 0;
#X floatatom 48 117 6 0 0 0 - \$0-volume _ 0;
#X floatatom 48 137 6 0 0 0 - \$0-threshold _ 0;
#X obj 812 175 s \$0-display;
#X obj 291 77 cnv 13 36 13 empty empty empty 20 12 0 10 #ffffff #404040 0;
#X floatatom 290 76 6 0 2000 1 tetrahedron\ edge\ length\ (mm) \$0-edge-length-rcv \$0-edge-length 0;
#X obj 291 97 cnv 13 36 13 empty empty empty 20 12 0 10 #ffffff #404040 0;
#X obj 291 117 cnv 13 36 13 empty empty empty 20 12 0 10 #ffffff #404040 0;
#X obj 291 137 cnv 13 36 13 empty empty empty 20 12 0 10 #ffffff #404040 0;
#X floatatom 290 116 6 0 100000 1 distance\ ch1---mic1\ (mm) \$0-speaker1-distance-rcv \$0-speaker1-distance 0;
#X floatatom 290 96 6 1 256 1 channel\ count \$0-speaker-count-rcv \$0-speaker-count 0;
#X floatatom 290 136 6 -20 60 1 °C\ (for\ speed\ of\ sound) \$0-temperature-rcv \$0-temperature 0;
#X text 738 213 front;
#X text 266 213 top;
#X text 502 213 side;
#X text 288 50 2) Setup parameters;
#X text 530 50 3) Calibrate \, measure \, export;
#X text 46 50 1) Signal parameters;
#X obj 48 477 cnv 16 724 162 empty empty empty 20 12 0 10 #5b5b5b #404040 0;
#N canvas 677 42 1119 913 (subpatch) 0;
#X array \$0-signal 16 float 0;
#X coords 0 1 15 -1 64 120 1 0 0;
#X restore 702 513 graph;
#N canvas 788 813 450 278 (subpatch) 0;
#X array \$0-detail 12 float 2;
#X coords 0 1 12 -1 136 120 1 0 0;
#X restore 566 513 graph;
#N canvas 0 25 1920 1147 (subpatch) 0;
#X array \$0-transient 512 float 0;
#X array \$0-m1 512 float 0;
#X array \$0-detect 512 float 0;
#X coords 0 1 511 -1 512 120 1 0 0;
#X restore 54 513 graph;
#X obj 757 477 tgl 15 0 \$0-debug _r Use\ dummy\ values -98 8 0 10 #6f6f6f #000000 #000000 0 1;
#X msg 473 814 color 444;
#X obj 822 530 hip~ 4000;
#X obj 885 530 hip~ 4000;
#X obj 948 530 hip~ 4000;
#X obj 1011 530 hip~ 4000;
#X obj 1394 782 / 4;
#X msg 1425 766 6;
#X obj 1425 787 sqrt;
#X obj 1394 803 *;
#X obj 1394 824 pow 2;
#X obj 1355 824 pow 2;
#X obj 1355 866 sqrt;
#X obj 1355 845 -;
#X obj 1394 761 f;
#X obj 1425 745 loadbang;
#X obj 1409 724 r \$0-edge-length;
#X obj 1355 724 t a b;
#X text 1352 941 mm to m;
#X obj 1256 225 spigot;
#X obj 1172 167 t a a;
#X connect 0 0 142 0;
#X connect 1 0 2 0;
#X connect 1 0 160 0;
#X connect 2 0 22 0;
#X connect 3 0 6 0;
#X connect 4 0 14 0;
#X connect 5 0 1 1;
#X connect 10 0 87 0;
#X connect 12 0 162 0;
#X connect 12 0 204 0;
#X connect 15 0 10 0;
#X connect 16 0 10 1;
#X connect 17 0 10 2;
#X connect 18 0 10 3;
#X connect 22 0 1 1;
#X connect 23 0 22 1;
#X connect 23 0 140 0;
#X connect 24 0 43 0;
#X connect 27 0 28 0;
#X connect 27 1 29 0;
#X connect 27 2 30 0;
#X connect 31 0 28 1;
#X connect 31 1 29 1;
#X connect 31 2 30 1;
#X connect 32 0 3 0;
#X connect 33 0 38 0;
#X connect 34 0 38 1;
#X connect 35 0 16 0;
#X connect 36 0 17 0;
#X connect 37 0 18 0;
#X connect 38 0 222 0;
#X connect 39 0 85 0;
#X connect 40 0 55 0;
#X connect 41 0 55 0;
#X connect 42 0 41 0;
#X connect 42 0 88 0;
#X connect 43 0 19 0;
#X connect 43 0 21 0;
#X connect 43 0 20 0;
#X connect 44 0 6 0;
#X connect 45 0 19 0;
#X connect 45 0 20 0;
#X connect 45 0 21 0;
#X connect 46 0 49 0;
#X connect 46 1 50 0;
#X connect 47 0 48 0;
#X connect 48 0 51 0;
#X connect 49 0 47 1;
#X connect 50 0 126 0;
#X connect 50 1 5 0;
#X connect 51 0 58 0;
#X connect 51 1 126 0;
#X connect 51 2 47 1;
#X connect 53 0 54 0;
#X connect 53 1 47 0;
#X connect 54 0 184 0;
#X connect 54 1 52 0;
#X connect 55 0 222 1;
#X connect 56 0 46 0;
#X connect 58 0 57 0;
#X connect 59 0 117 0;
#X connect 60 0 121 0;
#X connect 61 0 122 0;
#X connect 62 0 123 0;
#X connect 63 0 124 0;
#X connect 64 0 60 0;
#X connect 64 1 61 0;
#X connect 64 2 62 0;
#X connect 64 3 63 0;
#X connect 65 0 205 0;
#X connect 65 1 206 0;
#X connect 65 2 207 0;
#X connect 65 3 208 0;
#X connect 66 0 4 0;
#X connect 67 0 104 0;
#X connect 67 1 112 0;
#X connect 67 2 80 0;
#X connect 67 2 70 0;
#X connect 67 2 69 0;
#X connect 67 2 68 0;
#X connect 68 0 60 1;
#X connect 69 0 61 1;
#X connect 70 0 62 1;
#X connect 71 0 72 0;
#X connect 72 0 142 0;
#X connect 73 0 75 1;
#X connect 73 0 31 0;
#X connect 77 0 95 0;
#X connect 78 0 76 0;
#X connect 79 0 78 0;
#X connect 80 0 63 1;
#X connect 81 0 82 0;
#X connect 82 0 112 0;
#X connect 83 0 44 1;
#X connect 84 0 127 0;
#X connect 85 0 42 0;
#X connect 85 1 151 0;
#X connect 85 2 5 0;
#X connect 85 3 40 0;
#X connect 85 3 86 0;
#X connect 86 0 87 1;
#X connect 87 0 67 0;
#X connect 88 0 87 1;
#X connect 89 0 96 0;
#X connect 89 1 96 1;
#X connect 90 0 59 0;
#X connect 90 0 27 0;
#X connect 91 0 94 0;
#X connect 92 0 99 0;
#X connect 93 0 98 0;
#X connect 94 0 90 1;
#X connect 95 0 89 0;
#X connect 95 1 89 1;
#X connect 95 2 96 2;
#X connect 96 0 90 0;
#X connect 97 0 89 2;
#X connect 98 0 94 0;
#X connect 98 1 94 1;
#X connect 99 0 94 0;
#X connect 99 1 94 2;
#X connect 103 0 155 0;
#X connect 104 0 105 0;
#X connect 104 1 106 0;
#X connect 104 2 107 0;
#X connect 104 3 108 0;
#X connect 105 0 118 0;
#X connect 106 0 109 1;
#X connect 106 0 114 0;
#X connect 107 0 109 2;
#X connect 107 0 113 0;
#X connect 108 0 109 3;
#X connect 108 0 113 1;
#X connect 109 0 111 0;
#X connect 111 0 77 0;
#X connect 112 0 64 0;
#X connect 113 0 114 1;
#X connect 114 0 115 1;
#X connect 115 0 116 0;
#X connect 116 0 220 0;
#X connect 117 1 132 0;
#X connect 117 2 133 0;
#X connect 118 0 115 0;
#X connect 118 1 109 0;
#X connect 119 0 75 0;
#X connect 120 0 158 0;
#X connect 121 0 105 1;
#X connect 122 0 106 1;
#X connect 123 0 107 1;
#X connect 124 0 108 1;
#X connect 125 0 149 0;
#X connect 126 0 151 0;
#X connect 127 0 126 1;
#X connect 128 0 130 0;
#X connect 129 0 131 0;
#X connect 130 0 129 0;
#X connect 131 0 119 0;
#X connect 132 0 134 0;
#X connect 133 0 135 0;
#X connect 134 0 136 0;
#X connect 135 0 137 0;
#X connect 136 0 138 0;
#X connect 137 0 139 0;
#X connect 138 0 119 1;
#X connect 139 0 119 2;
#X connect 140 0 158 1;
#X connect 141 0 156 0;
#X connect 143 0 223 0;
#X connect 144 0 150 0;
#X connect 145 0 148 0;
#X connect 146 0 145 0;
#X connect 146 1 147 0;
#X connect 147 0 76 0;
#X connect 149 0 120 0;
#X connect 149 1 143 0;
#X connect 149 2 35 0;
#X connect 149 3 36 0;
#X connect 149 4 37 0;
#X connect 149 5 73 0;
#X connect 150 0 146 0;
#X connect 151 0 159 0;
#X connect 151 1 141 0;
#X connect 151 2 1 0;
#X connect 152 0 159 1;
#X connect 153 0 152 0;
#X connect 154 0 157 0;
#X connect 155 0 153 0;
#X connect 155 0 154 0;
#X connect 156 0 157 0;
#X connect 157 0 44 0;
#X connect 158 0 53 0;
#X connect 159 0 14 0;
#X connect 159 0 125 0;
#X connect 160 0 32 0;
#X connect 160 2 73 1;
#X connect 160 3 120 1;
#X connect 160 4 161 0;
#X connect 161 0 150 0;
#X connect 162 0 13 0;
#X connect 204 0 11 0;
#X connect 205 0 66 0;
#X connect 206 0 66 1;
#X connect 207 0 66 2;
#X connect 208 0 66 3;
#X connect 209 0 212 0;
#X connect 210 0 211 0;
#X connect 211 0 212 1;
#X connect 212 0 213 0;
#X connect 213 0 216 1;
#X connect 214 0 216 0;
#X connect 215 0 128 0;
#X connect 216 0 215 0;
#X connect 217 0 209 0;
#X connect 218 0 210 0;
#X connect 219 0 217 1;
#X connect 220 0 214 0;
#X connect 220 1 217 0;
#X connect 222 0 18 1;
#X connect 222 0 17 1;
#X connect 222 0 16 1;
#X connect 222 0 15 1;
#X connect 223 0 15 0;
#X connect 223 1 33 0;
#X coords 0 -1 1 1 740 607 2 40 40;
#X restore 2 3 pd gui;
