#N struct 1007-struct float x0 float y0 float c float f;
#N struct 1008-struct float x0 float y0 float c float f;
#N struct 1009-struct float x0 float y0 float c float f;
#N canvas 477 203 745 543 10;
#N canvas 101 86 1766 1031 gui 0;
#X obj 472 638 bng 16 250 50 0 empty empty empty 0 -8 0 10 #fcfcfc #000000 #000000;
#X obj 472 617 loadbang;
#X obj 977 389 tabplay~ \$0-chirp;
#X obj 639 49 tgl 15 0 \$0-measure-snd \$0-measure-rcv run\ measurements 18 8 0 10 #f73e3a #000000 #000000 0 1;
#X obj 966 299 f;
#X obj 993 299 + 1;
#X msg 966 363 set \$1;
#X obj 897 248 t a a;
#X obj 908 629 *~ -1;
#X msg 981 275 0;
#X obj 966 470 dac~ 1;
#X obj 88 617 array define \$0-m2 1024;
#X obj 88 638 array define \$0-m3 1024;
#X obj 88 659 array define \$0-m4 1024;
#X obj 1172 304 pack f f f f;
#N canvas 218 170 507 565 create_chirp 0;
#X obj 37 37 inlet;
#X obj 52 96 samplerate~;
#X obj 52 117 pow -1, f 9;
#X obj 52 159 * 1000;
#X obj 36 496 tabwrite~ \$0-chirp;
#X obj 35 65 t a a a a;
#X msg 126 96 const 0;
#X obj 126 117 s \$0-chirp;
#X obj 306 285 mtof~;
#X obj 306 306 osc~;
#X obj 306 327 *~;
#X msg 351 282 -0.25;
#X obj 306 220 vline~;
#X obj 407 285 clip~ -1 1;
#X obj 407 306 pow~ 3;
#X obj 407 264 *~ 1.3;
#X obj 54 221 vline~;
#X obj 115 30 bng 16 250 50 0 empty empty empty 0 -8 0 10 #fcfcfc #000000 #000000;
#X obj 135 258 cos~;
#X obj 135 279 +~ 1;
#X obj 135 300 /~ 2;
#X obj 54 368 cos~;
#X obj 54 348 +~ 0.25;
#X msg 54 200 -1 \, 1 \$1;
#X obj 54 242 /~ 2;
#X obj 54 389 *~;
#X obj 54 314 /~ 2;
#X obj 115 360 pow~ 12;
#N canvas 63 88 450 300 shape_pow 0;
#X obj 54 99 inlet~;
#X obj 54 167 /~;
#X obj 92 148 abs~;
#X obj 54 233 outlet~;
#X obj 54 191 *~;
#X obj 92 172 pow~ 0.12;
#X connect 0 0 1 0;
#X connect 0 0 2 0;
#X connect 1 0 4 0;
#X connect 2 0 1 1;
#X connect 2 0 5 0;
#X connect 4 0 3 0;
#X connect 5 0 4 1;
#X restore 54 263 pd shape_pow;
#X msg 306 198 1 \, 0 \$1;
#X obj 52 138 * 47;
#X obj 306 264 +~ 54;
#X obj 306 243 *~ 58;
#X obj 45 462 *~ 1;
#X connect 0 0 5 0;
#X connect 1 0 2 0;
#X connect 2 0 30 0;
#X connect 3 0 29 0;
#X connect 3 0 11 0;
#X connect 5 0 4 0;
#X connect 5 1 1 0;
#X connect 5 3 6 0;
#X connect 6 0 7 0;
#X connect 8 0 9 0;
#X connect 9 0 10 0;
#X connect 10 0 33 0;
#X connect 11 0 9 1;
#X connect 12 0 15 0;
#X connect 12 0 32 0;
#X connect 13 0 14 0;
#X connect 14 0 10 1;
#X connect 15 0 13 0;
#X connect 16 0 24 0;
#X connect 17 0 5 0;
#X connect 18 0 19 0;
#X connect 19 0 20 0;
#X connect 20 0 27 0;
#X connect 21 0 25 0;
#X connect 22 0 21 0;
#X connect 23 0 16 0;
#X connect 24 0 18 0;
#X connect 24 0 28 0;
#X connect 26 0 22 0;
#X connect 27 0 25 1;
#X connect 28 0 26 0;
#X connect 29 0 12 0;
#X connect 30 0 3 0;
#X connect 31 0 8 0;
#X connect 32 0 31 0;
#X connect 33 0 4 0;
#X restore 472 659 pd create_chirp;
#X obj 473 735 s \$0-transient;
#X msg 473 714 color 900;
#X obj 473 693 loadbang;
#X obj 573 735 s \$0-detect;
#X msg 573 714 color 69;
#X obj 897 269 bng 16 250 50 0 empty empty empty 0 -8 0 10 #fcfcfc #000000 #000000;
#X obj 897 654 tabwrite~ \$0-m1 \$0-m2 \$0-m3 \$0-m4;
#X obj 1172 248 +;
#X obj 1195 259 +;
#X obj 1218 269 +;
#X obj 1241 280 +;
#X obj 290 684 array define \$0-x 1;
#X obj 290 705 array define \$0-y 1;
#X obj 290 726 array define \$0-z 1;
#X obj 794 125 t a a a;
#X floatatom 49 91 6 0 100000 1 dist\ spk1<->mic1\ (mm) \$0-speaker1-distance-rcv \$0-speaker1-distance 0;
#X floatatom 49 70 6 1 256 1 speaker\ count \$0-speaker-count-rcv \$0-speaker-count 0;
#X obj 1020 299 mod 1;
#X obj 1047 276 r \$0-speaker-count;
#X obj 290 638 r \$0-speaker-count;
#X obj 89 704 v a\$0;
#X obj 89 725 v b\$0;
#X obj 1033 715 unpack f f f;
#X obj 1033 736 array set \$0-x;
#X obj 1053 756 array set \$0-y;
#X obj 1073 776 array set \$0-z;
#X obj 1074 694 t a a a;
#X obj 966 342 + 1;
#X obj 401 70 hsl 120 15 32 0 0 0 \$0-offset \$0-offset-rcv signal\ offset 124 7 0 10 #fcfcfc #000000 #000000 0 1;
#X obj 1278 206 * -1;
#X obj 947 71 bng 16 250 50 0 empty empty empty 0 -8 0 10 #fcfcfc #000000 #000000;
#X obj 1311 206 r \$0-speaker1-distance;
#X floatatom 1278 248 5 0 0 0 - - - 0;
#X text 969 71 0;
#X obj 1230 232 f;
#X floatatom 251 70 6 -20 60 1 temperature \$0-temperature-rcv \$0-temperature 0;
#X obj 1195 132 x/get_peak_abs \$0 2;
#N canvas 26 365 1015 658 peak 0;
#X obj 277 142 t f b;
#X obj 277 163 until;
#X obj 277 184 f;
#X obj 303 185 + 1;
#X msg 331 184 0, f 2;
#X obj 277 231 array get \$0-m1 0 1;
#X obj 277 326 t f f;
#X obj 279 353 -;
#X obj 279 374 t f f;
#X obj 282 402 -;
#X obj 282 465 max, f 7;
#X msg 406 121 normalize;
#X obj 406 142 s \$0-m1;
#X obj 282 589 f;
#X obj 282 567 sel 1;
#X obj 282 546 change;
#X obj 496 166 loadbang;
#X obj 496 213 samplerate~;
#X obj 496 234 pow -1;
#X obj 496 276 * 1000;
#X obj 35 301 *;
#X obj 496 190 bng 16 250 50 0 empty empty empty 0 -8 0 10 #fcfcfc #000000 #000000;
#X floatatom 413 239 5 0 0 0 - - - 0;
#X msg 277 121 1024;
#X obj 413 267 t b f b;
#X obj 417 512 tabwrite \$0-detail;
#X obj 413 383 until;
#X obj 413 404 f;
#X obj 440 404 + 1;
#X msg 451 296 0;
#X obj 413 425 t f f;
#X obj 413 446 +;
#X obj 417 491 tabread \$0-m1;
#X obj 258 51 t b b b;
#X msg 413 292 12;
#X obj 34 65 array max \$0-detail;
#X obj 34 131 array get \$0-detail 0 3;
#X text 490 29 // For x = [-1 \, 0 \, 1] \; let a = (y1 + y3 - 2*y2)/2 \; let b = (y3 - y1)/2 \; \; // Peak position relative to center point \; let xPeak = -b/(2*a) \; // Peak value \; let yPeak = a*xPeak*xPeak + b*xPeak + y2 \;;
#X obj 34 158 unpack f f f;
#X floatatom 35 235 5 0 0 0 - - - 0;
#X obj 35 257 +;
#X obj 34 88 t a a a;
#X floatatom 73 235 5 0 0 0 - - - 0;
#X obj 35 279 +;
#X obj 142 353 t b f b;
#X msg 183 376 const 0;
#X obj 183 397 s \$0-detect;
#X obj 142 431 tabwrite \$0-detect;
#X msg 142 374 1;
#X obj 340 536 tabwrite \$0-transient;
#X obj 277 210 t f f;
#X obj 282 444 > 1;
#X obj 282 423 * 4;
#X obj 35 589 outlet;
#X obj 258 12 inlet;
#X obj 282 506 t f f;
#X obj 496 255 * 344.8;
#X obj 633 234 * 0.6;
#X obj 633 255 + 331.5;
#X floatatom 633 276 5 0 0 0 - - - 0;
#X obj 34 110 - 1;
#X obj 34 186 expr -b\$0/(2*a\$0+0.00001) \; a\$0 = ($f1 + $f3 - 2*$f2) / 2 \; b\$0 = ($f3 - $f1)/2 \;;
#X obj 633 213 r \$0-temperature;
#X connect 0 0 1 0;
#X connect 0 1 4 0;
#X connect 1 0 2 0;
#X connect 2 0 3 0;
#X connect 2 0 50 0;
#X connect 3 0 2 1;
#X connect 4 0 2 1;
#X connect 4 0 9 1;
#X connect 4 0 7 1;
#X connect 4 0 10 1;
#X connect 5 0 6 0;
#X connect 6 0 7 1;
#X connect 6 1 7 0;
#X connect 7 0 8 0;
#X connect 8 0 9 1;
#X connect 8 1 9 0;
#X connect 9 0 52 0;
#X connect 10 0 55 0;
#X connect 11 0 12 0;
#X connect 13 0 22 0;
#X connect 14 0 13 0;
#X connect 15 0 14 0;
#X connect 16 0 21 0;
#X connect 17 0 18 0;
#X connect 18 0 56 0;
#X connect 19 0 20 1;
#X connect 20 0 53 0;
#X connect 21 0 17 0;
#X connect 22 0 24 0;
#X connect 22 0 40 1;
#X connect 23 0 0 0;
#X connect 24 0 34 0;
#X connect 24 1 31 1;
#X connect 24 2 29 0;
#X connect 26 0 27 0;
#X connect 27 0 28 0;
#X connect 27 0 30 0;
#X connect 28 0 27 1;
#X connect 29 0 27 1;
#X connect 30 0 31 0;
#X connect 30 1 25 1;
#X connect 31 0 32 0;
#X connect 32 0 25 0;
#X connect 33 0 35 0;
#X connect 33 1 23 0;
#X connect 33 2 11 0;
#X connect 34 0 26 0;
#X connect 35 1 41 0;
#X connect 36 0 38 0;
#X connect 38 0 61 0;
#X connect 38 1 61 1;
#X connect 38 2 61 2;
#X connect 39 0 40 0;
#X connect 40 0 43 0;
#X connect 41 0 60 0;
#X connect 41 1 42 0;
#X connect 42 0 43 1;
#X connect 43 0 20 0;
#X connect 43 0 44 0;
#X connect 44 0 48 0;
#X connect 44 1 47 1;
#X connect 44 2 45 0;
#X connect 45 0 46 0;
#X connect 48 0 47 0;
#X connect 50 0 5 0;
#X connect 50 1 13 1;
#X connect 50 1 49 1;
#X connect 51 0 10 0;
#X connect 52 0 51 0;
#X connect 52 0 49 0;
#X connect 54 0 33 0;
#X connect 55 0 15 0;
#X connect 55 1 10 1;
#X connect 56 0 19 0;
#X connect 57 0 58 0;
#X connect 58 0 59 0;
#X connect 59 0 56 1;
#X connect 60 0 36 0;
#X connect 61 0 39 0;
#X connect 62 0 57 0;
#X restore 1172 111 pd peak for mic 1;
#X obj 1218 153 x/get_peak_abs \$0 3;
#X obj 1241 174 x/get_peak_abs \$0 4;
#X obj 273 91 bng 15 250 50 0 \$0-calibrate empty calibrate 18 7 0 10 #7fc6ff #000000 #000000;
#X obj 1278 227 +;
#X obj 1172 180 t f b f;
#X obj 947 50 r \$0-calibrate;
#X msg 998 112 1;
#X obj 1230 212 spigot;
#X msg 947 134 0;
#X obj 947 113 del 100;
#X msg 290 659 resize \$1;
#X obj 977 440 *~ 0.001;
#X obj 966 320 t a a a a;
#X msg 271 617 bounds 0 -1000 10 1000;
#X text 741 381 side;
#X text 495 381 front;
#X text 267 381 top;
#X obj 870 185 sel 0;
#X obj 828 316 spigot;
#X msg 828 337 0;
#X msg 870 295 1;
#X obj 897 206 t a b;
#X obj 828 358 t b a a;
#N canvas 440 873 532 299 getmax 0;
#X obj 30 38 inlet;
#X obj 30 123 * -1;
#X obj 30 144 max;
#X obj 30 81 t b b;
#X obj 180 123 * -1;
#X obj 180 144 max;
#X obj 180 81 t b b;
#X obj 30 102 array min \$0-x;
#X obj 63 123 array max \$0-x;
#X obj 180 102 array min \$0-y;
#X obj 213 123 array max \$0-y;
#X obj 30 60 t b b b;
#X obj 30 165 max;
#X obj 330 123 * -1;
#X obj 330 144 max;
#X obj 330 81 t b b;
#X obj 330 102 array min \$0-z;
#X obj 363 123 array max \$0-z;
#X obj 30 186 max;
#X obj 30 207 s \$0-max;
#X connect 0 0 11 0;
#X connect 1 0 2 0;
#X connect 2 0 12 0;
#X connect 3 0 7 0;
#X connect 3 1 8 0;
#X connect 4 0 5 0;
#X connect 5 0 12 1;
#X connect 6 0 9 0;
#X connect 6 1 10 0;
#X connect 7 0 1 0;
#X connect 8 0 2 1;
#X connect 9 0 4 0;
#X connect 10 0 5 1;
#X connect 11 0 3 0;
#X connect 11 1 6 0;
#X connect 11 2 15 0;
#X connect 12 0 18 0;
#X connect 13 0 14 0;
#X connect 14 0 18 1;
#X connect 15 0 16 0;
#X connect 15 1 17 0;
#X connect 16 0 13 0;
#X connect 17 0 14 1;
#X connect 18 0 19 0;
#X restore 828 100 pd getmax;
#X obj 801 294 t a a;
#X obj 801 79 t b b;
#X obj 49 141 x/display x y \$0;
#X obj 289 141 x/display x z \$0;
#X obj 529 141 x/display y z \$0;
#X obj 998 150 t a;
#X obj 870 165 r \$0-measure-snd;
#X obj 828 401 s \$0-measure-rcv;
#X msg 828 379 set 0;
#X obj 1172 824 x/crt2sph 180;
#X obj 1191 470 x/angle3d cyc;
#X obj 1279 470 x/angle3d cyc;
#X obj 1367 470 x/angle3d cyc;
#X obj 1454 470 x/angle3d cyc;
#X obj 1191 395 t a a a a;
#X obj 908 537 adc~ 1 2 3 4;
#X obj 908 572 hip~ 8000;
#X obj 971 572 hip~ 8000;
#X obj 1035 572 hip~ 8000;
#X obj 1099 572 hip~ 8000;
#X obj 908 608 snake~ in 4;
#X obj 1172 344 t l l b;
#X msg 1266 447 0 0.57735 -0.204124;
#X msg 1354 424 -0.5 -0.288675 -0.204124;
#X msg 1442 401 0.5 -0.288675 -0.204124;
#X obj 401 91 hsl 120 15 0.0001 0.01 1 0 \$0-volume \$0-volume-rcv volume 124 7 0 10 #fcfcfc #000000 #000000 0 1;
#X obj 41 406 cnv 16 738 170 empty empty empty 20 12 0 10 #7c7c7c #404040 0;
#N canvas 677 42 1092 909 (subpatch) 0;
#X array \$0-chirp 256 float 0;
#X coords 0 1 255 -1 128 120 1 0 0;
#X restore 641 447 graph;
#N canvas 0 22 450 278 (subpatch) 0;
#X array \$0-detail 12 float 3;
#A 0 -0.680762 0.122359 0.895422 1 0.840393 0.568969 0.368568 0.186999 -0.113872 -0.569434 -0.781476 -0.558868;
#X coords 0 1 12 -1 128 120 1 0 0;
#X restore 513 447 graph;
#N canvas 0 25 1920 1147 (subpatch) 0;
#X array \$0-m1 512 float 0;
#X array \$0-transient 512 float 0;
#X array \$0-detect 512 float 0;
#X coords 0 1 511 -1 464 120 1 0 0;
#X restore 49 447 graph;
#X obj 531 617 r pd;
#X obj 531 638 route dsp;
#X msg 1009 218 clear;
#X obj 1074 459 f;
#X obj 639 91 bng 15 250 50 0 \$0-export empty export\ JSON 18 7 0 10 #94ec96 #000000 #000000;
#N canvas 295 320 798 770 save 0;
#X obj 30 34 r \$0-export;
#X obj 32 604 file;
#X obj 32 98 savepanel;
#X obj 96 404 list fromsymbol;
#X obj 125 319 list fromsymbol;
#N canvas 399 150 586 939 write_channels 0;
#X obj 45 43 inlet;
#X obj 45 109 text size \$0-channels;
#X obj 45 155 until;
#X obj 45 186 f;
#X obj 45 130 t a b;
#X msg 84 155 0;
#X obj 72 186 + 1;
#X obj 86 67 bng 16 250 50 0 empty empty empty 0 -8 0 10 #fcfcfc #000000 #000000;
#X obj 65 249 text get \$0-channels;
#X obj 66 273 list split 1;
#X obj 136 876 outlet;
#X obj 79 293 list;
#X obj 136 823 list fromsymbol;
#X obj 136 794 makefilename %f;
#X msg 129 384 32 32 32 32 32 32 32 32 34 65 122 105 109 117 116 104 34 58, f 29;
#X obj 66 316 t b b f b;
#X obj 133 340 f;
#X obj 162 339 + 1;
#X msg 145 320 0;
#X msg 155 420 32 32 32 32 32 32 32 32 34 69 108 101 118 97 116 105 111 110 34 58, f 33;
#X msg 185 457 32 32 32 32 32 32 32 32 34 82 97 100 105 117 115 34 58, f 28;
#X msg 294 495 32 32 32 32 32 32 123 10;
#X msg 84 500 44 10;
#X obj 64 649 makefilename %d;
#X obj 64 670 list fromsymbol;
#X msg 73 557 32 32 32 32 32 32 32 32 34 67 104 97 110 110 101 108 34 58;
#X msg 54 691 44 10;
#X msg 40 726 32 32 32 32 32 32 32 32 34 73 115 73 109 97 103 105 110 97 114 121 34 58 102 97 108 115 101 44 10 32 32 32 32 32 32 32 32 34 71 97 105 110 34 58 49 10 32 32 32 32 32 32 125 44 10;
#X obj 45 212 t a a a a a a a;
#X obj 65 625 + 1;
#X obj 133 361 sel 1 2 0;
#X connect 0 0 1 0;
#X connect 1 0 4 0;
#X connect 2 0 3 0;
#X connect 3 0 6 0;
#X connect 3 0 28 0;
#X connect 4 0 2 0;
#X connect 4 1 5 0;
#X connect 5 0 3 1;
#X connect 6 0 3 1;
#X connect 7 0 1 0;
#X connect 8 0 9 0;
#X connect 9 0 15 0;
#X connect 9 1 11 1;
#X connect 11 0 9 0;
#X connect 12 0 10 0;
#X connect 13 0 12 0;
#X connect 14 0 10 0;
#X connect 15 0 11 0;
#X connect 15 1 22 0;
#X connect 15 2 13 0;
#X connect 15 3 16 0;
#X connect 16 0 17 0;
#X connect 16 0 30 0;
#X connect 17 0 16 1;
#X connect 18 0 16 1;
#X connect 19 0 10 0;
#X connect 20 0 10 0;
#X connect 21 0 10 0;
#X connect 22 0 10 0;
#X connect 23 0 24 0;
#X connect 24 0 10 0;
#X connect 25 0 10 0;
#X connect 26 0 10 0;
#X connect 27 0 10 0;
#X connect 28 0 27 0;
#X connect 28 1 26 0;
#X connect 28 2 29 0;
#X connect 28 3 25 0;
#X connect 28 4 8 0;
#X connect 28 5 18 0;
#X connect 28 6 21 0;
#X connect 29 0 23 0;
#X connect 30 0 14 0;
#X connect 30 1 19 0;
#X connect 30 2 20 0;
#X restore 65 492 pd write_channels;
#X msg 141 258 123 10 32 32 34 78 97 109 101 34 58 34, f 22;
#X msg 111 346 34 44 10 32 32 34 68 101 115 99 114 105 112 116 105 111 110 34 58 34, f 35;
#X msg 80 429 34 44 10 32 32 34 76 111 117 100 115 112 101 97 107 101 114 76 97 121 111 117 116 34 58 123 10 32 32 32 32 34 76 111 117 100 115 112 101 97 107 101 114 115 34 58 91 10, f 42;
#X msg 47 519 32 32 32 32 93 10 32 32 125 10 125 10;
#X obj 32 195 t b b b b b b b b a;
#X msg 33 552 close;
#X msg 150 229 open \$1 c;
#X obj 125 299 symbol name;
#X obj 96 382 symbol description;
#X obj 150 33 r \$0-name;
#X obj 239 32 r \$0-description;
#X text 200 52 FIXME: use;
#X connect 0 0 2 0;
#X connect 2 0 10 0;
#X connect 3 0 1 0;
#X connect 4 0 1 0;
#X connect 5 0 1 0;
#X connect 6 0 1 0;
#X connect 7 0 1 0;
#X connect 8 0 1 0;
#X connect 9 0 1 0;
#X connect 10 0 11 0;
#X connect 10 1 9 0;
#X connect 10 2 5 0;
#X connect 10 3 8 0;
#X connect 10 4 14 0;
#X connect 10 5 7 0;
#X connect 10 6 13 0;
#X connect 10 7 6 0;
#X connect 10 8 12 0;
#X connect 11 0 1 0;
#X connect 12 0 1 0;
#X connect 13 0 4 0;
#X connect 14 0 3 0;
#X connect 15 0 13 1;
#X connect 16 0 14 1;
#X restore 628 638 pd save;
#X obj 999 840 text set \$0-channels;
#X obj 1009 239 text define \$0-channels;
#X obj 754 412 tgl 15 0 \$0-debug empty dummy\ values -74 8 0 10 #bbbbbb #000000 #000000 0 1;
#N canvas 736 279 521 683 random_values 0;
#X obj 84 79 inlet;
#X obj 83 493 outlet;
#X obj 154 327 - 1000;
#X obj 194 347 - 1000;
#X obj 154 388 pack f f f;
#X obj 84 136 spigot 1;
#X obj 154 136 spigot;
#X obj 187 67 r \$0-debug;
#X obj 150 98 == 0;
#X obj 234 367 - 1000;
#X obj 268 67 r \$0-speaker-count;
#X obj 154 157 b;
#X obj 154 178 f;
#X obj 182 198 mod 1;
#X msg 236 284 seed \$1;
#X obj 154 217 t b b b a a a;
#X msg 296 284 seed \$1;
#X msg 356 284 seed \$1;
#X obj 234 346 random 2001;
#X obj 194 326 random 2001;
#X obj 154 306 random 2001;
#X obj 182 177 + 1;
#X obj 236 262 * 10000;
#X obj 296 263 * 20000;
#X obj 356 263 * 30000;
#X obj 236 240 +;
#X obj 296 240 +;
#X obj 358 240 +;
#X obj 268 103 b;
#X obj 268 138 random 1000;
#X connect 0 0 5 0;
#X connect 0 0 6 0;
#X connect 2 0 4 0;
#X connect 3 0 4 1;
#X connect 4 0 1 0;
#X connect 5 0 1 0;
#X connect 6 0 11 0;
#X connect 7 0 6 1;
#X connect 7 0 8 0;
#X connect 8 0 5 1;
#X connect 9 0 4 2;
#X connect 10 0 13 1;
#X connect 10 0 28 0;
#X connect 11 0 12 0;
#X connect 12 0 15 0;
#X connect 12 0 21 0;
#X connect 13 0 12 1;
#X connect 14 0 20 0;
#X connect 15 0 20 0;
#X connect 15 1 19 0;
#X connect 15 2 18 0;
#X connect 15 3 25 0;
#X connect 15 4 26 0;
#X connect 15 5 27 0;
#X connect 16 0 19 0;
#X connect 17 0 18 0;
#X connect 18 0 9 0;
#X connect 19 0 3 0;
#X connect 20 0 2 0;
#X connect 21 0 13 0;
#X connect 22 0 14 0;
#X connect 23 0 16 0;
#X connect 24 0 17 0;
#X connect 25 0 22 0;
#X connect 26 0 23 0;
#X connect 27 0 24 0;
#X connect 28 0 29 0;
#X connect 29 0 27 1;
#X connect 29 0 26 1;
#X connect 29 0 25 1;
#X restore 1172 679 pd random_values;
#X msg 1053 217 click;
#X obj 1054 196 r \$0-show-list;
#X obj 639 70 bng 15 250 50 0 \$0-show-list empty show\ list\ editor 18 7 0 10 #ffffff #000000 #000000;
#X msg 1529 380 0 0 0.612372;
#X obj 1306 338 r \$0-edge-length;
#X msg 1306 359 edge \$1;
#X floatatom 49 49 6 0 2000 1 tetrahedron\ edge\ (mm) \$0-edge-length-rcv \$0-edge-length 0;
#X obj 401 49 hsl 120 15 0.1 100 1 0 \$0-interval \$0-interval-rcv interval 124 7 0 10 #ffffff #000000 #000000 0 1;
#X obj 1022 419 r \$0-volume;
#X obj 942 184 r \$0-interval;
#X obj 947 92 t b b b b;
#X msg 1034 113 0;
#X obj 1172 325 spigot 1;
#X msg 914 134 1;
#X obj 1172 721 x/rotate2d;
#X obj 1172 803 x/add3d;
#X obj 52 128 hsl 170 8 -180 180 0 0 \$0-rotate \$0-rotate-rcv rotate 0 -7 0 10 #fcfcfc #000000 #000000 0 1;
#X obj 234 128 hsl 170 8 -1000 1000 0 0 \$0-x-offset \$0-x-offset-rcv x-offset 0 -7 0 10 #fcfcfc #000000 #000000 0 1;
#X obj 416 128 hsl 170 8 -1000 1000 0 0 \$0-y-offset \$0-y-offset-rcv y-offset 0 -7 0 10 #fcfcfc #000000 #000000 0 1;
#X obj 597 128 hsl 170 8 -1000 1000 0 0 \$0-z-offset \$0-z-offset-rcv z-offset 0 -7 0 10 #fcfcfc #000000 #000000 0 1;
#X obj 1349 721 r \$0-x-offset;
#X obj 1442 742 r \$0-z-offset;
#X obj 1356 742 r \$0-y-offset;
#X obj 1349 787 pack f f f;
#X obj 1172 700 unpack f f f;
#X obj 1172 742 pack f f f, f 12;
#X obj 1253 700 r \$0-rotate;
#X obj 1355 763 t b f;
#X obj 1442 763 t b f;
#X obj 757 115 bng 12 250 50 0 \$0-reset-offset empty reset\ offset -74 6 0 10 #dfdfdf #000000 #000000;
#N canvas 953 170 1008 542 init_parameters 0;
#X obj 134 64 loadbang;
#X msg 143 98 22;
#X msg 66 98 1;
#X msg 102 98 1000;
#X msg 179 98 0.001;
#X msg 230 98 12;
#X msg 30 98 577;
#X msg 266 98 26;
#X msg 383 95 0;
#X obj 382 63 r \$0-reset-offset;
#X obj 30 259 s \$0-edge-length-rcv;
#X obj 381 207 s \$0-y-offset-rcv;
#X obj 411 167 s \$0-rotate-rcv;
#X obj 401 187 s \$0-z-offset-rcv;
#X obj 361 227 s \$0-x-offset-rcv;
#X obj 67 238 s \$0-speaker-count-rcv;
#X obj 102 215 s \$0-speaker1-distance-rcv;
#X obj 143 193 s \$0-temperature-rcv;
#X obj 179 170 s \$0-volume-rcv;
#X obj 230 149 s \$0-offset-rcv;
#X obj 266 119 s \$0-interval-rcv;
#X connect 0 0 2 0;
#X connect 0 0 1 0;
#X connect 0 0 3 0;
#X connect 0 0 4 0;
#X connect 0 0 5 0;
#X connect 0 0 6 0;
#X connect 0 0 7 0;
#X connect 0 0 8 0;
#X connect 1 0 17 0;
#X connect 2 0 15 0;
#X connect 3 0 16 0;
#X connect 4 0 18 0;
#X connect 5 0 19 0;
#X connect 6 0 10 0;
#X connect 7 0 20 0;
#X connect 8 0 14 0;
#X connect 8 0 11 0;
#X connect 8 0 13 0;
#X connect 8 0 12 0;
#X connect 9 0 8 0;
#X restore 628 617 pd init_parameters;
#X text 1604 959 Ben Wesch \, 2025;
#X text 1251 304 distances;
#X obj 994 508 r \$0-offset;
#X obj 994 529 i;
#X obj 897 507 del 2 64 samp;
#X obj 1172 572 unpack f f f f;
#X obj 1133 593 -;
#X obj 1199 593 -;
#X obj 1226 593 -;
#X obj 1252 593 -;
#X obj 1172 614 pack f f f f;
#X text 1462 127 0: 0 \; 22.5: 0.5 \; 45: 1 \; 67.5: 1.5 \; 90: 2 \; 112.5: 3 \; 135: 5 \; 167.5: 8.5 \; 180: 9.5 \;;
#X obj 1172 658 x/tetra2pos_abs 577;
#X obj 1191 375 x/tetra2pos_abs 577;
#X obj 1237 635 +;
#X obj 1207 635 +;
#X obj 1179 635 +;
#X obj 1138 651 / 4;
#X obj 1172 845 unpack f f f;
#X obj 1133 614 t a a;
#X obj 1172 950 pack f f f;
#X listbox 1172 971 24 0 0 0 - - - 16;
#X obj 808 238 f;
#X obj 808 259 sel 1;
#X obj 1191 491 expr pow($f1*360 \, 3)*1.646e-6-pow($f1*360 \, 2)*1.0347e-4+0.0193*$f1*360;
#X obj 1279 523 expr pow($f1*360 \, 3)*1.646e-6-pow($f1*360 \, 2)*1.0347e-4+0.0193*$f1*360;
#X obj 1367 555 expr pow($f1*360 \, 3)*1.646e-6-pow($f1*360 \, 2)*1.0347e-4+0.0193*$f1*360;
#X obj 1454 587 expr pow($f1*360 \, 3)*1.646e-6-pow($f1*360 \, 2)*1.0347e-4+0.0193*$f1*360;
#X obj 1157 69 del 1 512 samp;
#X obj 977 415 *~ 1;
#X obj 897 227 metro 1 64 samp;
#X obj 963 206 i;
#X obj 1138 866 / 10;
#X obj 1138 908 i;
#X obj 1138 887 + 0.5;
#X obj 1138 929 / 100;
#X obj 1206 866 * 10;
#X obj 1245 866 * 10;
#X obj 1206 887 + 0.5;
#X obj 1245 887 + 0.5;
#X obj 1206 908 i;
#X obj 1245 908 i;
#X obj 1206 929 / 10;
#X obj 1245 929 / 10;
#X obj 808 280 bng 16 250 50 0 empty empty empty 0 -8 0 10 #fcfcfc #000000 #000000;
#X obj 1059 299 - 1;
#X obj 1157 90 t a a a a a a;
#X connect 0 0 15 0;
#X connect 1 0 0 0;
#X connect 2 0 178 0;
#X connect 4 0 5 0;
#X connect 4 0 66 0;
#X connect 5 0 33 0;
#X connect 6 0 10 0;
#X connect 7 0 21 0;
#X connect 7 1 4 0;
#X connect 8 0 22 0;
#X connect 9 0 4 1;
#X connect 14 0 130 0;
#X connect 17 0 16 0;
#X connect 18 0 20 0;
#X connect 18 0 17 0;
#X connect 20 0 19 0;
#X connect 21 0 2 0;
#X connect 21 0 153 0;
#X connect 23 0 14 0;
#X connect 24 0 14 1;
#X connect 25 0 14 2;
#X connect 26 0 14 3;
#X connect 30 0 80 0;
#X connect 30 1 81 0;
#X connect 30 2 82 0;
#X connect 33 0 4 1;
#X connect 34 0 33 1;
#X connect 34 0 194 0;
#X connect 35 0 64 0;
#X connect 38 0 39 0;
#X connect 38 1 40 0;
#X connect 38 2 41 0;
#X connect 42 0 39 1;
#X connect 42 1 40 1;
#X connect 42 2 41 1;
#X connect 43 0 6 0;
#X connect 45 0 57 0;
#X connect 46 0 128 0;
#X connect 47 0 57 1;
#X connect 48 0 50 1;
#X connect 50 0 26 1;
#X connect 50 0 25 1;
#X connect 50 0 24 1;
#X connect 50 0 23 1;
#X connect 52 0 24 0;
#X connect 53 0 58 0;
#X connect 54 0 25 0;
#X connect 55 0 26 0;
#X connect 57 0 48 0;
#X connect 58 0 23 0;
#X connect 58 1 61 0;
#X connect 58 2 45 0;
#X connect 59 0 46 0;
#X connect 60 0 83 0;
#X connect 61 0 50 0;
#X connect 62 0 83 0;
#X connect 63 0 62 0;
#X connect 63 0 131 0;
#X connect 64 0 27 0;
#X connect 64 0 29 0;
#X connect 64 0 28 0;
#X connect 65 0 10 0;
#X connect 66 0 43 0;
#X connect 66 2 111 1;
#X connect 66 3 171 1;
#X connect 67 0 27 0;
#X connect 67 0 28 0;
#X connect 67 0 29 0;
#X connect 71 0 74 0;
#X connect 71 1 75 0;
#X connect 72 0 73 0;
#X connect 73 0 76 0;
#X connect 74 0 72 1;
#X connect 75 0 179 0;
#X connect 75 1 9 0;
#X connect 75 1 110 0;
#X connect 76 0 86 0;
#X connect 76 1 179 0;
#X connect 76 2 72 1;
#X connect 78 0 79 0;
#X connect 78 1 72 0;
#X connect 79 0 30 0;
#X connect 79 1 77 0;
#X connect 83 0 61 1;
#X connect 84 0 71 0;
#X connect 86 0 85 0;
#X connect 87 0 167 0;
#X connect 88 0 173 0;
#X connect 89 0 174 0;
#X connect 90 0 175 0;
#X connect 91 0 176 0;
#X connect 92 0 88 0;
#X connect 92 1 89 0;
#X connect 92 2 90 0;
#X connect 92 3 91 0;
#X connect 93 0 94 0;
#X connect 93 1 95 0;
#X connect 93 2 96 0;
#X connect 93 3 97 0;
#X connect 94 0 98 0;
#X connect 95 0 98 1;
#X connect 96 0 98 2;
#X connect 97 0 98 3;
#X connect 98 0 8 0;
#X connect 99 0 154 0;
#X connect 99 1 162 0;
#X connect 99 2 121 0;
#X connect 99 2 102 0;
#X connect 99 2 101 0;
#X connect 99 2 100 0;
#X connect 100 0 88 1;
#X connect 101 0 89 1;
#X connect 102 0 90 1;
#X connect 108 0 109 0;
#X connect 109 0 0 0;
#X connect 110 0 115 0;
#X connect 111 0 114 1;
#X connect 111 0 42 0;
#X connect 117 0 142 0;
#X connect 118 0 115 0;
#X connect 119 0 118 0;
#X connect 121 0 91 1;
#X connect 122 0 123 0;
#X connect 123 0 162 0;
#X connect 126 0 65 1;
#X connect 127 0 180 0;
#X connect 128 0 63 0;
#X connect 128 1 7 0;
#X connect 128 2 9 0;
#X connect 128 3 60 0;
#X connect 128 3 129 0;
#X connect 129 0 130 1;
#X connect 130 0 99 0;
#X connect 131 0 130 1;
#X connect 132 0 143 0;
#X connect 132 1 143 1;
#X connect 133 0 87 0;
#X connect 133 0 38 0;
#X connect 138 0 141 0;
#X connect 139 0 146 0;
#X connect 140 0 145 0;
#X connect 141 0 133 1;
#X connect 142 0 132 0;
#X connect 142 1 132 1;
#X connect 142 2 143 2;
#X connect 143 0 133 0;
#X connect 144 0 132 2;
#X connect 145 0 141 0;
#X connect 145 1 141 1;
#X connect 146 0 141 0;
#X connect 146 1 141 2;
#X connect 151 0 152 0;
#X connect 152 0 153 1;
#X connect 153 0 22 0;
#X connect 153 0 177 0;
#X connect 154 0 155 0;
#X connect 154 1 156 0;
#X connect 154 2 157 0;
#X connect 154 3 158 0;
#X connect 155 0 168 0;
#X connect 156 0 159 1;
#X connect 156 0 164 0;
#X connect 157 0 159 2;
#X connect 157 0 163 0;
#X connect 158 0 159 3;
#X connect 158 0 163 1;
#X connect 159 0 161 0;
#X connect 161 0 117 0;
#X connect 162 0 92 0;
#X connect 163 0 164 1;
#X connect 164 0 165 1;
#X connect 165 0 166 0;
#X connect 166 0 181 0;
#X connect 167 1 185 0;
#X connect 167 2 186 0;
#X connect 168 0 165 0;
#X connect 168 1 159 0;
#X connect 169 0 170 0;
#X connect 169 0 114 0;
#X connect 171 0 172 0;
#X connect 172 0 78 0;
#X connect 172 0 193 0;
#X connect 173 0 155 1;
#X connect 174 0 156 1;
#X connect 175 0 157 1;
#X connect 176 0 158 1;
#X connect 177 0 195 0;
#X connect 178 0 65 0;
#X connect 179 0 7 0;
#X connect 180 0 179 1;
#X connect 181 0 183 0;
#X connect 182 0 184 0;
#X connect 183 0 182 0;
#X connect 184 0 169 0;
#X connect 185 0 187 0;
#X connect 186 0 188 0;
#X connect 187 0 189 0;
#X connect 188 0 190 0;
#X connect 189 0 191 0;
#X connect 190 0 192 0;
#X connect 191 0 169 1;
#X connect 192 0 169 2;
#X connect 194 0 172 1;
#X connect 195 0 171 0;
#X connect 195 1 111 0;
#X connect 195 2 53 0;
#X connect 195 3 52 0;
#X connect 195 4 54 0;
#X connect 195 5 55 0;
#X coords 0 -1 1 1 740 537 2 40 40;
#X restore 2 3 pd gui;
