#N canvas 45 474 435 523 10;
#X obj 101 173 length3d;
#X obj 56 47 inlet;
#X obj 164 47 inlet;
#X text 297 460 Ben Wesch \, 2025;
#X obj 56 114 dot3d;
#X msg 249 183 1;
#X obj 249 204 atan;
#X obj 284 47 loadbang;
#X obj 284 94 pdcontrol;
#X msg 284 73 args 0;
#X obj 284 115 list split 1;
#X obj 249 246 pow -1;
#X obj 284 136 route symbol;
#X obj 56 414 * 1;
#X obj 164 173 length3d;
#X obj 101 216 *;
#X obj 56 250 /;
#X obj 56 461 outlet;
#X obj 315 179 t b b;
#X obj 282 302 *;
#X obj 249 225 * 8;
#X text 272 225 tau;
#X msg 315 247 360;
#X obj 56 68 t a a, f 8;
#X obj 284 157 sel cyc deg;
#X obj 56 293 expr acos($f1);
#X connect 0 0 15 0;
#X connect 1 0 23 0;
#X connect 2 0 4 1;
#X connect 2 0 14 0;
#X connect 4 0 16 0;
#X connect 5 0 6 0;
#X connect 6 0 20 0;
#X connect 7 0 9 0;
#X connect 8 0 10 0;
#X connect 9 0 8 0;
#X connect 10 0 12 0;
#X connect 11 0 13 1;
#X connect 11 0 19 1;
#X connect 12 0 24 0;
#X connect 13 0 17 0;
#X connect 14 0 15 1;
#X connect 15 0 16 1;
#X connect 16 0 25 0;
#X connect 18 0 22 0;
#X connect 18 1 5 0;
#X connect 19 0 13 1;
#X connect 20 0 11 0;
#X connect 22 0 19 0;
#X connect 23 0 4 0;
#X connect 23 1 0 0;
#X connect 24 0 5 0;
#X connect 24 1 18 0;
#X connect 25 0 13 0;
