#N canvas 234 78 874 644 12;
#X text 101 61 axis are expected as: right~x \, forward~y \, top~z;
#X text 65 484 radius;
#X text 411 484 polar angle;
#X text 230 484 azimuthal angle;
#X msg 635 324 1;
#X obj 635 348 atan;
#X obj 635 419 pow -1;
#X floatatom 635 396 5 0 0 0 - - - 0;
#X obj 554 143 loadbang;
#X obj 554 231 pdcontrol;
#X msg 554 207 args 0;
#X obj 554 255 list split 1;
#X obj 554 279 route symbol float;
#X obj 554 303 sel pi;
#X obj 635 372 * 4;
#X text 645 443 convert to desired range;
#X msg 554 443 1;
#X obj 615 443 *;
#X obj 554 175 t b b, f 12;
#X obj 59 61 inlet;
#X obj 228 295 expr atan2($f1 \, $f2);
#X obj 411 319 expr asin($f1);
#X obj 59 98 unpack f f f;
#X obj 59 172 pow 2;
#X obj 103 172 pow 2;
#X obj 147 172 pow 2;
#X obj 59 220 +;
#X obj 103 196 +;
#X text 154 97 x y z;
#X obj 228 272 * -1;
#X obj 59 267 t f f;
#X obj 59 243 sqrt;
#X obj 411 293 *;
#X obj 411 237 pow -1;
#X obj 411 462 * 0.159155;
#X obj 228 462 * 0.159155;
#X text 708 564 Ben Wesch \, 2024;
#X obj 59 122 t a a;
#X obj 109 122 t a a;
#X obj 160 122 t a a;
#X obj 59 532 pack f f f;
#X obj 59 565 outlet;
#X connect 4 0 5 0;
#X connect 5 0 14 0;
#X connect 6 0 17 1;
#X connect 7 0 6 0;
#X connect 8 0 18 0;
#X connect 9 0 11 0;
#X connect 10 0 9 0;
#X connect 11 0 12 0;
#X connect 12 0 13 0;
#X connect 12 1 17 0;
#X connect 13 0 16 0;
#X connect 14 0 7 0;
#X connect 16 0 34 1;
#X connect 16 0 35 1;
#X connect 17 0 34 1;
#X connect 17 0 35 1;
#X connect 18 0 10 0;
#X connect 18 1 4 0;
#X connect 19 0 22 0;
#X connect 20 0 35 0;
#X connect 21 0 34 0;
#X connect 22 0 37 0;
#X connect 22 1 38 0;
#X connect 22 2 39 0;
#X connect 23 0 26 0;
#X connect 24 0 27 0;
#X connect 25 0 27 1;
#X connect 26 0 31 0;
#X connect 27 0 26 1;
#X connect 29 0 20 0;
#X connect 30 0 40 0;
#X connect 30 1 33 0;
#X connect 31 0 30 0;
#X connect 32 0 21 0;
#X connect 33 0 32 0;
#X connect 34 0 40 2;
#X connect 35 0 40 1;
#X connect 37 0 23 0;
#X connect 37 1 29 0;
#X connect 38 0 24 0;
#X connect 38 1 20 1;
#X connect 39 0 25 0;
#X connect 39 1 32 1;
#X connect 40 0 41 0;
