#N struct 1268-struct float x0 float y0 float c float f;
#N canvas 613 71 1024 734 10;
#X obj 521 102 inlet;
#X obj 521 123 route bang size;
#X obj 560 102 bng 16 250 50 0 empty empty empty 0 -8 0 10 #fcfcfc #000000 #000000;
#N canvas 3 51 1263 1060 \$0-display 0;
#X scalar 1268-struct 175.599 89.1572 0 0 \;;
#X scalar 1268-struct 160.616 90.8545 0 1 \;;
#X scalar 1268-struct 176.594 36.0164 359 2 \;;
#X scalar 1268-struct 126.789 124.623 0 3 \;;
#X scalar 1268-struct 88.689 183.792 0 4 \;;
#X scalar 1268-struct 64.5767 54.9785 0 5 \;;
#X scalar 1268-struct 144.464 12.3722 0 6 \;;
#X scalar 1268-struct 141.537 42.3371 0 7 \;;
#X scalar 1268-struct 114.03 10.9091 0 8 \;;
#X scalar 1268-struct 94.366 66.6251 0 9 \;;
#X scalar 1268-struct 104.842 56.3832 0 10 \;;
#X scalar 1268-struct 81.3734 140.718 0 11 \;;
#X coords 0 240 240 0 240 240 2 100 100;
#X restore 100 115 pd \$0-display;
#N canvas 260 553 752 508 \$0-struct 0;
#X obj 28 52 outlet;
#X obj 28 30 struct \$0-struct float x0 float y0 float c float f;
#X obj 28 84 filledpolygon c c 1 x0(0:240)(-5:235) y0(0:240)(0:240) x0(0:240)(0:240) y0(0:240)(-5:235) x0(0:240)(5:245) y0(0:240)(0:240) x0(0:240)(0:240) y0(0:240)(5:245);
#X connect 1 0 0 0;
#X restore 403 102 pd \$0-struct;
#X obj 710 207 s pd-\$0-display;
#X obj 746 270 pointer;
#X msg 746 249 traverse pd-\$1-display \, bang;
#X obj 746 228 \$0;
#X msg 710 186 clear;
#X msg 641 312 append \$1 \, bang;
#X obj 641 333 list store;
#X obj 403 123 route click;
#X obj 403 144 unpack p;
#X obj 641 186 until;
#X obj 641 165 t a b b, f 10;
#X text 711 332 pointer list;
#X obj 521 202 until;
#X obj 521 181 f;
#X msg 560 202 0;
#X obj 521 223 f;
#X obj 548 223 + 1;
#X obj 584 354 list store;
#X obj 521 160 t b b;
#X obj 482 507 + 1;
#X obj 482 528 * 120;
#X obj 521 507 + 1;
#X obj 521 528 * 120;
#X msg 584 333 get \$1;
#X obj 710 165 loadbang;
#X obj 668 207 + 1;
#X obj 641 207 f;
#X obj 641 291 append \$0-struct f;
#X obj 501 33 r \$3-selected;
#X obj 403 186 s \$3-selected;
#X obj 521 396 array get \$3-\$2 0 1;
#X obj 482 375 array get \$3-\$1 0 1;
#X obj 449 554 set \$0-struct c x0 y0 f;
#X obj 320 452 sel 1;
#X obj 403 165 get \$0-struct f;
#X obj 320 545 s \$0-values;
#X obj 641 124 r \$3-speaker-count;
#X obj 482 486 / 1;
#X obj 521 486 / 1;
#X obj 677 450 r \$3-max;
#X obj 677 470 * 1.1;
#X obj 100 100 cnv 14 240 14 empty \$0-values y:\ 967\ \ z:\ -1435\ \ ch:\ 3 4 8 0 10 #ffffff #000000 0;
#X obj 105 445 loadbang;
#X obj 105 551 s \$0-values;
#X obj 176 444 bng 16 250 50 0 empty empty empty 0 -8 0 10 #fcfcfc #000000 #000000;
#X msg 105 530 label \$1\\\ \$2;
#X obj 320 499 symbol;
#X msg 320 520 label \$1;
#X obj 105 505 list append \$1 \$2;
#X obj 501 54 t b a;
#X obj 320 396 == -1;
#X obj 449 533 * 359;
#X obj 365 422 pack f f f;
#X obj 347 338 t a a;
#X obj 521 282 t a a a a a;
#X obj 365 443 list append \$1 \$2;
#X msg 365 465 symbol \$4:\\\ \$1\\\ \\\ \$5:\\\ \$2\\\ \\\ ch:\\\ \$3;
#X obj 398 380 + 1;
#X connect 0 0 1 0;
#X connect 1 0 23 0;
#X connect 1 1 15 0;
#X connect 2 0 1 0;
#X connect 4 0 12 0;
#X connect 6 0 32 1;
#X connect 7 0 6 0;
#X connect 8 0 7 0;
#X connect 9 0 5 0;
#X connect 10 0 11 0;
#X connect 11 0 22 1;
#X connect 12 0 13 0;
#X connect 13 0 39 0;
#X connect 14 0 31 0;
#X connect 15 0 14 0;
#X connect 15 0 18 1;
#X connect 15 1 8 0;
#X connect 15 2 9 0;
#X connect 15 2 11 1;
#X connect 17 0 20 0;
#X connect 18 0 17 0;
#X connect 19 0 20 1;
#X connect 20 0 21 0;
#X connect 20 0 59 0;
#X connect 21 0 20 1;
#X connect 22 0 37 4;
#X connect 23 0 18 0;
#X connect 23 1 19 0;
#X connect 24 0 25 0;
#X connect 25 0 37 1;
#X connect 26 0 27 0;
#X connect 27 0 37 2;
#X connect 28 0 22 0;
#X connect 29 0 9 0;
#X connect 30 0 31 1;
#X connect 31 0 30 0;
#X connect 31 0 32 0;
#X connect 32 0 10 0;
#X connect 33 0 54 0;
#X connect 35 0 43 0;
#X connect 35 0 57 1;
#X connect 36 0 42 0;
#X connect 36 0 57 0;
#X connect 38 0 51 0;
#X connect 39 0 34 0;
#X connect 41 0 15 0;
#X connect 42 0 24 0;
#X connect 43 0 26 0;
#X connect 44 0 45 0;
#X connect 45 0 43 1;
#X connect 45 0 42 1;
#X connect 47 0 53 0;
#X connect 49 0 53 0;
#X connect 50 0 48 0;
#X connect 51 0 52 0;
#X connect 52 0 40 0;
#X connect 53 0 50 0;
#X connect 54 0 23 0;
#X connect 54 1 58 0;
#X connect 55 0 38 0;
#X connect 55 0 56 0;
#X connect 56 0 37 0;
#X connect 57 0 60 0;
#X connect 58 0 55 1;
#X connect 58 1 62 0;
#X connect 59 0 55 0;
#X connect 59 1 36 0;
#X connect 59 2 35 0;
#X connect 59 3 37 3;
#X connect 59 4 28 0;
#X connect 60 0 61 0;
#X connect 61 0 51 1;
#X connect 62 0 57 2;
#X coords 0 -1 1 1 240 255 1 100 100;
