#N canvas 1295 157 324 317 10;
#X obj 144 63 inlet;
#X obj 58 144 *;
#X obj 128 144 *;
#X obj 198 144 *;
#X obj 58 203 +;
#X obj 128 173 +;
#X obj 58 249 outlet;
#X text 55 42 vector1;
#X text 141 42 vector2;
#X obj 58 63 inlet;
#X obj 58 104 unpack f f f;
#X obj 144 104 unpack f f f;
#X connect 0 0 11 0;
#X connect 1 0 4 0;
#X connect 2 0 5 0;
#X connect 3 0 5 1;
#X connect 4 0 6 0;
#X connect 5 0 4 1;
#X connect 9 0 10 0;
#X connect 10 0 1 0;
#X connect 10 1 2 0;
#X connect 10 2 3 0;
#X connect 11 0 1 1;
#X connect 11 1 2 1;
#X connect 11 2 3 1;
