#N canvas 645 319 1000 588 10;
#X obj 277 142 t f b;
#X obj 277 163 until;
#X obj 277 184 f;
#X obj 303 185 + 1;
#X msg 331 184 0, f 2;
#X obj 277 256 t f f;
#X obj 279 283 -;
#X obj 279 304 t f f;
#X obj 282 332 -;
#X obj 282 395 max;
#X msg 406 121 normalize;
#X obj 284 489 f;
#X obj 283 467 sel 1;
#X obj 282 446 change;
#X obj 501 64 loadbang;
#X obj 501 111 samplerate~;
#X obj 501 132 pow -1;
#X obj 501 174 * 1000;
#X obj 35 351 *;
#X obj 501 88 bng 16 250 50 0 empty empty empty 0 -8 0 10 #fcfcfc #000000 #000000;
#X floatatom 413 239 5 0 0 0 - - - 0;
#X msg 277 121 1024;
#X obj 413 267 t b f b;
#X obj 417 422 tabwrite \$0-detail;
#X obj 413 313 until;
#X obj 413 334 f;
#X obj 440 334 + 1;
#X msg 444 290 0;
#X obj 413 355 t f f;
#X obj 413 376 +;
#X obj 33 81 t b b b;
#X msg 413 292 12;
#X obj 34 115 array max \$0-detail;
#X obj 34 160 - 1;
#X obj 34 181 array get \$0-detail 0 3;
#X obj 34 208 unpack f f f;
#X floatatom 35 285 5 0 0 0 - - - 0;
#X obj 35 307 +;
#X obj 34 138 t a a a;
#X floatatom 73 285 5 0 0 0 - - - 0;
#X obj 35 329 +;
#X obj 277 210 t f f;
#X obj 282 374 > 1;
#X obj 282 353 * 4;
#X obj 35 539 outlet;
#X obj 33 51 inlet;
#N canvas 0 22 450 278 (subpatch) 0;
#X array \$0-detail 12 float 3;
#A 0 -0.468956 0.119692 0.826365 1 0.578978 -0.00499742 -0.432355 -0.535515 -0.453129 -0.457911 -0.462807 -0.1336;
#X coords 0 1 12 -1 256 240 1 0 0;
#X restore 715 60 graph;
#X obj 282 421 t f f;
#X obj 618 348 v a\$0;
#X obj 618 367 v b\$0;
#X obj 501 153 * 344.8;
#X obj 598 86 * 0.6;
#X obj 598 107 + 331.5;
#X floatatom 598 128 5 0 0 0 - - - 0;
#X obj 417 401 tabread \$1-m\$2;
#X obj 277 235 array get \$1-m\$2 0 1;
#X obj 406 142 s \$1-m\$2;
#X obj 34 236 expr -b\$0/(2*a\$0+0.00001) \; a\$0 = ($f1 + $f3 - 2*$f2) / 2 \; b\$0 = ($f3 - $f1)/2 \;;
#X floatatom 141 327 5 0 0 0 - - - 0;
#X obj 598 65 r \$1-temperature;
#X text 807 519 Ben Wesch \, 2025;
#X connect 0 0 1 0;
#X connect 0 1 4 0;
#X connect 1 0 2 0;
#X connect 2 0 3 0;
#X connect 2 0 41 0;
#X connect 3 0 2 1;
#X connect 4 0 2 1;
#X connect 4 0 8 1;
#X connect 4 0 6 1;
#X connect 4 0 9 1;
#X connect 5 0 6 1;
#X connect 5 1 6 0;
#X connect 6 0 7 0;
#X connect 7 0 8 1;
#X connect 7 1 8 0;
#X connect 8 0 43 0;
#X connect 9 0 47 0;
#X connect 10 0 56 0;
#X connect 11 0 20 0;
#X connect 12 0 11 0;
#X connect 13 0 12 0;
#X connect 14 0 19 0;
#X connect 15 0 16 0;
#X connect 16 0 50 0;
#X connect 17 0 18 1;
#X connect 18 0 44 0;
#X connect 19 0 15 0;
#X connect 20 0 22 0;
#X connect 20 0 37 1;
#X connect 21 0 0 0;
#X connect 22 0 31 0;
#X connect 22 1 29 1;
#X connect 22 2 27 0;
#X connect 24 0 25 0;
#X connect 25 0 26 0;
#X connect 25 0 28 0;
#X connect 26 0 25 1;
#X connect 27 0 25 1;
#X connect 28 0 29 0;
#X connect 28 1 23 1;
#X connect 29 0 54 0;
#X connect 30 0 32 0;
#X connect 30 1 21 0;
#X connect 30 2 10 0;
#X connect 31 0 24 0;
#X connect 32 1 38 0;
#X connect 33 0 34 0;
#X connect 34 0 35 0;
#X connect 35 0 57 0;
#X connect 35 1 57 1;
#X connect 35 2 57 2;
#X connect 36 0 37 0;
#X connect 37 0 40 0;
#X connect 38 0 33 0;
#X connect 38 1 39 0;
#X connect 39 0 40 1;
#X connect 40 0 18 0;
#X connect 41 0 55 0;
#X connect 41 1 11 1;
#X connect 42 0 9 0;
#X connect 43 0 42 0;
#X connect 45 0 30 0;
#X connect 47 0 13 0;
#X connect 47 1 9 1;
#X connect 50 0 17 0;
#X connect 51 0 52 0;
#X connect 52 0 53 0;
#X connect 53 0 50 1;
#X connect 54 0 23 0;
#X connect 55 0 5 0;
#X connect 57 0 36 0;
#X connect 57 1 58 0;
#X connect 59 0 51 0;
