#N canvas 662 280 372 332 10;
#X text 217 273 Ben Wesch \, 2024;
#X obj 58 54 inlet;
#X obj 58 124 pow 2;
#X obj 128 124 pow 2;
#X obj 208 124 pow 2;
#X obj 58 274 outlet;
#X obj 128 175 +;
#X obj 58 215 +;
#X obj 58 236 sqrt;
#X obj 58 89 unpack f f f;
#X connect 1 0 9 0;
#X connect 2 0 7 0;
#X connect 3 0 6 0;
#X connect 4 0 6 1;
#X connect 6 0 7 1;
#X connect 7 0 8 0;
#X connect 8 0 5 0;
#X connect 9 0 2 0;
#X connect 9 1 3 0;
#X connect 9 2 4 0;
