#N canvas 545 184 280 327 10;
#X obj 29 47 inlet;
#X obj 132 47 inlet;
#X obj 175 47 loadbang;
#X obj 132 89 f \$1;
#X obj 48 138 *;
#X obj 48 89 list_iterate;
#X obj 48 181 list prepend;
#X obj 129 181 t a;
#X obj 29 224 list;
#X obj 29 68 t b a b;
#X obj 29 245 outlet;
#X connect 0 0 9 0;
#X connect 1 0 3 0;
#X connect 2 0 3 0;
#X connect 3 0 4 1;
#X connect 4 0 6 0;
#X connect 5 0 4 0;
#X connect 6 0 7 0;
#X connect 6 0 8 1;
#X connect 7 0 6 1;
#X connect 8 0 10 0;
#X connect 9 0 8 0;
#X connect 9 1 5 0;
#X connect 9 2 6 1;
