#N canvas 546 184 293 291 10;
#X obj 49 37 inlet;
#X obj 49 78 unpack f f f;
#X obj 49 170 pack f f f;
#X obj 49 211 outlet;
#X obj 133 37 inlet;
#X obj 176 37 loadbang;
#X obj 133 78 f \$1;
#X obj 118 127 *;
#X obj 83 127 *;
#X obj 49 127 *;
#X text 141 216 Ben Wesch \, 2025;
#X connect 0 0 1 0;
#X connect 1 0 9 0;
#X connect 1 1 8 0;
#X connect 1 2 7 0;
#X connect 2 0 3 0;
#X connect 4 0 6 0;
#X connect 5 0 6 0;
#X connect 6 0 9 1;
#X connect 6 0 7 1;
#X connect 6 0 8 1;
#X connect 7 0 2 2;
#X connect 8 0 2 1;
#X connect 9 0 2 0;
