#N canvas 358 136 396 386 10;
#X text 37 46 coordinate input;
#X obj 48 69 inlet;
#X obj 119 69 inlet;
#X obj 188 69 inlet;
#X obj 48 228 *;
#X obj 80 228 *;
#X obj 114 228 *;
#X obj 146 228 *;
#X obj 48 327 outlet;
#X obj 114 327 outlet;
#X obj 215 212 sin;
#X obj 188 212 cos;
#X obj 188 191 t f f;
#X obj 196 149 loadbang;
#X obj 48 163 t f f;
#X text 229 333 Ben Wesch \, 2024;
#X obj 48 249 -;
#X obj 114 249 +;
#X obj 196 170 f \$1;
#X obj 119 163 t f f;
#X text 233 68 z-rotation;
#X text 87 70 x;
#X text 158 70 y;
#X obj 188 110 * 0.0174533;
#X text 190 48 rotation angles in degrees;
#X connect 1 0 14 0;
#X connect 2 0 19 0;
#X connect 3 0 23 0;
#X connect 4 0 16 0;
#X connect 5 0 16 1;
#X connect 6 0 17 0;
#X connect 7 0 17 1;
#X connect 10 0 5 1;
#X connect 10 0 6 1;
#X connect 11 0 4 1;
#X connect 11 0 7 1;
#X connect 12 0 11 0;
#X connect 12 1 10 0;
#X connect 13 0 18 0;
#X connect 14 0 4 0;
#X connect 14 1 6 0;
#X connect 16 0 8 0;
#X connect 17 0 9 0;
#X connect 18 0 12 0;
#X connect 19 0 5 0;
#X connect 19 1 7 0;
#X connect 23 0 12 0;
